<svg xmlns="http://www.w3.org/2000/svg" viewBox="0 0 52.1 49.39"><g id="Layer_2" data-name="Layer 2"><g id="Layer_1-2" data-name="Layer 1"><path d="M35.66,20.32a26.22,26.22,0,0,0-9.61-1.83A25.77,25.77,0,0,0,7.66,26.17,26.23,26.23,0,0,0,0,44.6v.93L.81,46a25.91,25.91,0,0,0,12.82,3.4H14a26.43,26.43,0,0,0,11.28-2.73,28.82,28.82,0,0,1-3.17-2.08,23,23,0,0,1-18.89-.91A22.88,22.88,0,0,1,35.83,23.86,22.1,22.1,0,0,0,35.66,20.32Z" style="fill:#06d6a0;fill-rule:evenodd"/><path d="M52.09,44.38A26.06,26.06,0,0,0,40.77,23a26.72,26.72,0,0,1-.26,3.79,22.87,22.87,0,0,1,8.37,16.64A22.89,22.89,0,0,1,15.62,25.2a21.4,21.4,0,0,0-3,1.95A26,26,0,0,0,51.29,45.79l.81-.47Z" style="fill:#06d6a0;fill-rule:evenodd"/><path d="M27,.47,26.17,0l-.81.47a26.27,26.27,0,0,0-13,20.89,25.68,25.68,0,0,1,3.4-1.7A23.29,23.29,0,0,1,26.16,3.72a23.13,23.13,0,0,1,7.47,30.92A23.35,23.35,0,0,1,27,41.94a21.89,21.89,0,0,0,3.17,1.6,26.72,26.72,0,0,0,6.24-7.31A26.32,26.32,0,0,0,27,.47Z" style="fill:#06d6a0;fill-rule:evenodd"/><path d="M26.15,27.69a2.67,2.67,0,1,0,2.66,2.66A2.66,2.66,0,0,0,26.15,27.69Zm0,8.52A5.86,5.86,0,1,1,32,30.35,5.86,5.86,0,0,1,26.15,36.21Z" style="fill:#06d6a0;fill-rule:evenodd"/></g></g></svg>