<svg xmlns="http://www.w3.org/2000/svg" viewBox="0 0 53.17 60.8"><g id="Layer_2" data-name="Layer 2"><g id="Layer_1-2" data-name="Layer 1"><path d="M26.59,0c-3.75,0-6.8,13.61-6.8,30.4s3.05,30.4,6.8,30.4,6.79-13.61,6.79-30.4S30.34,0,26.59,0Zm.47,59.08a.54.54,0,0,1-.86.15,16.16,16.16,0,0,1-2.59-5.73c-3-9.72-2.31-30.61-2.31-30.61,1.42-16.58,4-20.5,4.89-21.37a.54.54,0,0,1,.69-.05c1.27.9,2.34,4.68,2.34,4.68A89.57,89.57,0,0,1,32.1,28.9a118.39,118.39,0,0,1-1.59,20.31C29.07,57.36,27.06,59.08,27.06,59.08Z" style="fill:#3772ff"/><path d="M53,15.27C51.09,12,37.77,16.15,23.2,24.5s-24.85,17.77-23,21S15.41,44.65,30,36.29s24.84-17.76,23-21Zm-51,29.81c-.71-.09-.55-.68-.55-.68a16.22,16.22,0,0,1,3.67-5.09C12,31.84,30.47,22.07,30.47,22.07c15.09-7,19.77-6.72,21-6.39a.52.52,0,0,1,.39.57c-.14,1.56-2.89,4.37-2.89,4.37a89.17,89.17,0,0,1-18.3,13.81,118,118,0,0,1-18.41,8.74C4.43,46,1.94,45.08,1.94,45.08Z" style="fill:#3772ff"/><path d="M52.89,45.63c1.88-3.24-8.37-12.7-22.89-21.12S2.17,11.91.29,15.16,8.65,27.87,23.18,36.28,51,48.89,52.89,45.63ZM1.53,16.42a.55.55,0,0,1,.31-.82,16.13,16.13,0,0,1,6.25.63C18,18.49,35.74,29.58,35.74,29.58c13.63,9.55,15.72,13.75,16,14.94a.53.53,0,0,1-.3.62c-1.42.66-5.23-.31-5.23-.31a89.48,89.48,0,0,1-21.13-8.92A117.42,117.42,0,0,1,8.35,24.36C2,19,1.54,16.43,1.54,16.43Z" style="fill:#3772ff"/><circle cx="26.52" cy="30.33" r="3.58" style="fill:#aac3ff"/><ellipse cx="41.18" cy="16.59" rx="2.07" ry="2.15" style="fill:#aac3ff"/><ellipse cx="7.13" cy="23.89" rx="2.07" ry="2.15" style="fill:#aac3ff"/><ellipse cx="22.3" cy="50.21" rx="2.07" ry="2.15" style="fill:#aac3ff"/></g></g></svg>