<svg width="56" height="56" viewBox="0 0 56 56" fill="none" xmlns="http://www.w3.org/2000/svg">
<rect width="56" height="56" rx="8" fill="#797A9D" fill-opacity="0.2"/>
<g clip-path="url(#clip0_200_333)">
<path d="M28.4591 39.405C34.5329 39.405 39.4567 34.5045 39.4567 28.4593C39.4567 22.4141 34.5329 17.5135 28.4591 17.5135C22.3852 17.5135 17.4614 22.4141 17.4614 28.4593C17.4614 34.5045 22.3852 39.405 28.4591 39.405Z" fill="#1B1E36"/>
<path d="M28.5 12C26.4559 12 24.7932 19.3921 24.7932 28.5068C24.7932 37.6215 26.449 45.0068 28.5 45.0068C30.551 45.0068 32.2068 37.6147 32.2068 28.5068C32.2068 19.3989 30.5442 12 28.5 12ZM28.7521 44.0709C28.5205 44.3829 28.2888 44.1523 28.2888 44.1523C27.6149 43.2202 27.1332 42.1646 26.8715 41.0463C25.2225 35.7633 25.6178 24.431 25.6178 24.431C26.3945 15.4248 27.7981 13.3021 28.2819 12.8274C28.3351 12.785 28.4012 12.7619 28.4693 12.7619C28.5375 12.7619 28.6036 12.785 28.6567 12.8274C29.3381 13.3157 29.9378 15.3705 29.9378 15.3705C30.9908 19.4007 31.5176 23.5491 31.505 27.7133C31.5376 31.407 31.248 35.0966 30.6396 38.7405C29.856 43.1418 28.7521 44.0709 28.7521 44.0709V44.0709Z" fill="#6F7390"/>
<path d="M42.8774 20.294C41.8621 18.524 34.5985 20.7688 26.6535 25.3057C18.7084 29.8427 13.1007 34.9494 14.1159 36.7126C15.1312 38.4759 22.4016 36.2379 30.3466 31.7009C38.2916 27.1639 43.8995 22.0573 42.8774 20.294ZM15.0562 36.5092C14.6679 36.4549 14.7564 36.1362 14.7564 36.1362C15.2368 35.0929 15.9174 34.153 16.7597 33.3692C20.5414 29.3002 30.6192 24.0172 30.6192 24.0172C38.8436 20.2059 41.3988 20.3686 42.053 20.5449C42.1188 20.5649 42.1757 20.6068 42.2142 20.6636C42.2526 20.7204 42.2703 20.7887 42.2641 20.8569C42.1824 21.7046 40.6833 23.2237 40.6833 23.2237C37.6961 26.1405 34.3432 28.6616 30.7078 30.7244C27.5039 32.5924 24.1434 34.1808 20.6641 35.4716C16.419 36.9975 15.0562 36.516 15.0562 36.516V36.5092Z" fill="#6F7390"/>
<path d="M42.8433 36.7738C43.8722 35.0105 38.278 29.8767 30.3602 25.3058C22.4425 20.7349 15.1788 18.4698 14.1567 20.2331C13.1346 21.9963 18.7153 27.1301 26.6399 31.701C34.5644 36.2719 41.8144 38.5438 42.8433 36.7738ZM14.8313 20.9112C14.8061 20.8721 14.7905 20.8276 14.7857 20.7813C14.7809 20.7351 14.7871 20.6884 14.8036 20.6449C14.8201 20.6014 14.8466 20.5624 14.881 20.5309C14.9154 20.4994 14.9567 20.4764 15.0016 20.4636C16.1486 20.3551 17.3059 20.4703 18.4086 20.8027C23.8597 22.0302 33.4878 28.0524 33.4878 28.0524C40.9218 33.2337 42.0666 35.5124 42.2369 36.1905C42.2529 36.2571 42.2453 36.3272 42.2155 36.3889C42.1857 36.4507 42.1355 36.5004 42.0733 36.5296C41.2965 36.8823 39.2183 36.3533 39.2183 36.3533C35.1876 35.239 31.3174 33.6139 27.7028 31.5179C24.4739 29.6973 21.4119 27.5982 18.5517 25.2448C15.0971 22.349 14.8381 20.9384 14.8381 20.9384L14.8313 20.9112Z" fill="#6F7390"/>
<path d="M28.4592 30.3989C29.5354 30.3989 30.4079 29.5306 30.4079 28.4594C30.4079 27.3882 29.5354 26.5198 28.4592 26.5198C27.3829 26.5198 26.5104 27.3882 26.5104 28.4594C26.5104 29.5306 27.3829 30.3989 28.4592 30.3989Z" fill="#B7B9C8"/>
<path d="M36.4586 22.1726C37.0833 22.1726 37.5897 21.6504 37.5897 21.0062C37.5897 20.362 37.0833 19.8397 36.4586 19.8397C35.8339 19.8397 35.3275 20.362 35.3275 21.0062C35.3275 21.6504 35.8339 22.1726 36.4586 22.1726Z" fill="#B7B9C8"/>
<path d="M17.8908 26.1332C18.5154 26.1332 19.0219 25.611 19.0219 24.9668C19.0219 24.3225 18.5154 23.8003 17.8908 23.8003C17.2661 23.8003 16.7596 24.3225 16.7596 24.9668C16.7596 25.611 17.2661 26.1332 17.8908 26.1332Z" fill="#B7B9C8"/>
<path d="M26.1628 40.4223C26.7875 40.4223 27.294 39.9 27.294 39.2558C27.294 38.6116 26.7875 38.0894 26.1628 38.0894C25.5382 38.0894 25.0317 38.6116 25.0317 39.2558C25.0317 39.9 25.5382 40.4223 26.1628 40.4223Z" fill="#B7B9C8"/>
</g>
<defs>
<clipPath id="clip0_200_333">
<rect width="29" height="33" fill="white" transform="translate(14 12)"/>
</clipPath>
</defs>
</svg>
