<svg width="56" height="56" viewBox="0 0 56 56" fill="none" xmlns="http://www.w3.org/2000/svg">
<rect width="56" height="56" rx="8" fill="#FFCB3D" fill-opacity="0.2"/>
<path d="M27.9503 11L18.9718 16.1481L22.3429 18.046L27.9503 14.9262L33.6322 18.046L37.1441 16.2132L27.9503 11Z" fill="#F0B90B"/>
<path d="M39.7615 17.5002L36.1171 19.3982L39.4881 21.3613L39.5544 25.2875L43 23.4629V19.6018L39.7615 17.5002Z" fill="#F0B90B"/>
<path d="M13 23.2755L16.5616 25.3282L16.4787 21.4671L19.8332 19.3411L16.4373 17.4269L13.1077 19.4633L13 23.2755Z" fill="#F0B90B"/>
<path d="M31.3876 43.3301L31.5864 39.2736L28.1491 41.1308L24.6786 39.184L24.5295 43.0287L27.9089 45L31.3876 43.3301Z" fill="#F0B90B"/>
<path d="M39.6621 27.9348L43 26.1021V36.4633L33.7068 41.7417L33.4998 37.954L39.629 34.3618L39.6621 27.9348Z" fill="#F0B90B"/>
<path d="M22.2932 37.7911L22.2767 41.5462L13.1077 36.447L13.0083 25.8903L16.4622 27.5764L16.6278 34.5898L22.2932 37.7911Z" fill="#F0B90B"/>
<path d="M37.1441 29.4174L33.9138 31.2501V34.9808L37.1441 33.2132V29.4174Z" fill="#F0B90B"/>
<path d="M22.1772 34.9971L22.2518 31.3234L18.9967 29.401L18.8724 33.0421L22.1772 34.9971Z" fill="#F0B90B"/>
<path d="M28.058 17.5002L24.8195 19.5285L27.9503 21.2961L31.2965 19.3982L28.058 17.5002Z" fill="#F0B90B"/>
<path d="M22.2518 20.8156L27.9503 24.0738L33.9138 20.8156L37.1441 22.7135V26.7782L31.2965 29.898V36.4634L28.058 38.2228L24.5295 36.4634V29.9631L18.8724 26.6397V22.6483L22.2518 20.8156Z" fill="#F0B90B"/>
</svg>
