<svg width="56" height="56" viewBox="0 0 56 56" fill="none" xmlns="http://www.w3.org/2000/svg">
<rect width="56" height="56" rx="8" fill="#9F9F9F" fill-opacity="0.2"/>
<g clip-path="url(#clip0_200_395)">
<path fill-rule="evenodd" clip-rule="evenodd" d="M40.4785 17.7633L40.6393 18.7237C40.7718 19.6392 40.8286 20.5643 40.8093 21.4895C40.8087 23.5333 40.574 25.5701 40.11 27.5589C39.4005 30.706 38.0377 33.6628 36.1129 36.2316C34.1881 38.8003 31.7456 40.9217 28.9489 42.4538L28.4953 42.7131L28.0417 42.4538C25.2503 40.9232 22.8117 38.8057 20.8888 36.2423C18.9659 33.6789 17.6028 30.7285 16.8901 27.5876C16.4169 25.6006 16.1821 23.5626 16.1908 21.5182C16.1828 20.5969 16.2365 19.676 16.3515 18.762L16.4932 17.8017C16.5214 17.7242 16.5214 17.6391 16.4932 17.5616C16.4799 17.4813 16.4475 17.4054 16.3987 17.3407C16.3489 17.2794 16.2918 17.2245 16.2286 17.1774C16.166 17.141 16.0993 17.1121 16.0301 17.0911C15.9557 17.0719 15.8777 17.0719 15.8033 17.0911C15.7266 17.1085 15.6552 17.1448 15.5954 17.1967C15.5297 17.2443 15.4721 17.3027 15.4253 17.3695C15.3861 17.4409 15.3605 17.519 15.3497 17.6L15.1797 18.5604C15.0584 19.5415 14.9983 20.5294 15 21.5182C14.9987 23.6658 15.2461 25.8061 15.7372 27.895C16.068 29.3164 16.5234 30.7048 17.098 32.0437C17.6655 33.3866 18.3552 34.6726 19.1583 35.885C21.2895 39.0888 24.1484 41.724 27.4935 43.5678L28.2212 43.9808C28.3095 44.0237 28.407 44.0435 28.5048 44.0384C28.6052 44.0389 28.7048 44.0193 28.7978 43.9808L29.5161 43.5678C32.4554 41.9545 35.0213 39.7216 37.0423 37.0186C39.0633 34.3156 40.4927 31.2049 41.2346 27.895C41.7268 25.8065 41.9711 23.6657 41.9623 21.5182C41.9637 20.523 41.9038 19.5288 41.7828 18.5412L41.6125 17.5808C41.5916 17.4995 41.5665 17.4193 41.537 17.3407C41.4872 17.2794 41.4299 17.2245 41.3668 17.1774L41.1683 17.0718C41.0939 17.0527 41.016 17.0527 40.9415 17.0718C40.8621 17.0888 40.7856 17.118 40.7147 17.1583C40.6432 17.1941 40.584 17.251 40.5447 17.3215C40.5036 17.3905 40.4717 17.4648 40.4501 17.5424L40.4785 17.7633Z" fill="white"/>
<path fill-rule="evenodd" clip-rule="evenodd" d="M19.7346 17.0911L28.4953 14.2869L37.4543 17.1679C37.5292 17.1822 37.6061 17.1822 37.6811 17.1679C37.7601 17.1671 37.8378 17.1474 37.9079 17.1103C37.9758 17.0697 38.0365 17.0177 38.0874 16.9566C38.146 16.8973 38.1829 16.8193 38.1914 16.7357C38.2055 16.6596 38.2055 16.5814 38.1914 16.5053C38.193 16.4216 38.1735 16.339 38.1347 16.2652C38.1008 16.192 38.0526 16.1267 37.993 16.0731C37.935 16.0166 37.8633 15.9769 37.7851 15.9578L28.6464 13.0288C28.591 13.0053 28.5317 12.9932 28.4717 12.9932C28.4117 12.9932 28.3522 13.0053 28.2968 13.0288L19.3661 15.9098C19.29 15.9293 19.2191 15.9653 19.1582 16.0155C19.0933 16.0638 19.0439 16.1307 19.0164 16.2075C18.9716 16.2792 18.9487 16.3627 18.9503 16.4476C18.9363 16.527 18.9363 16.6083 18.9503 16.6877C18.9714 16.7642 19.0067 16.8359 19.0542 16.899C19.1039 16.9651 19.1688 17.0179 19.2432 17.0527C19.3116 17.095 19.3899 17.1182 19.47 17.1198L19.7346 17.0911Z" fill="white"/>
<path fill-rule="evenodd" clip-rule="evenodd" d="M15.4064 17.9266L28.0039 43.6831C28.0456 43.7811 28.1145 43.8645 28.2023 43.9232C28.2982 43.9753 28.4054 44.0025 28.5142 44.0025C28.623 44.0025 28.7302 43.9753 28.8262 43.9232C28.9199 43.8631 28.9977 43.7807 29.053 43.6831L36.7077 28.6536L41.6125 17.965C41.6414 17.8877 41.6606 17.8071 41.6692 17.7249C41.688 17.6492 41.688 17.57 41.6692 17.4944C41.6494 17.4105 41.6069 17.334 41.5465 17.2735C41.4968 17.2074 41.4317 17.1546 41.3573 17.1199C41.2898 17.0761 41.2102 17.0559 41.1305 17.0622C41.0555 17.0479 40.9786 17.0479 40.9037 17.0622C40.8249 17.0848 40.7533 17.1279 40.6958 17.1871C40.6351 17.2435 40.5869 17.3122 40.5541 17.3888L35.5642 28.0678L28.4385 42.0601L16.4176 17.3792C16.3791 17.306 16.3314 17.2382 16.2758 17.1775C16.2135 17.1248 16.1434 17.0827 16.0679 17.0527C16.0323 17.0362 15.9936 17.0277 15.9545 17.0277C15.9154 17.0277 15.8767 17.0362 15.8411 17.0527C15.7621 17.0534 15.6844 17.0732 15.6143 17.1103L15.4347 17.2639C15.3851 17.3293 15.3497 17.4045 15.3307 17.4848C15.3069 17.5597 15.3069 17.6404 15.3307 17.7153C15.3421 17.7901 15.3678 17.8619 15.4064 17.9266V17.9266Z" fill="white"/>
<path fill-rule="evenodd" clip-rule="evenodd" d="M21.3886 29.4507H35.3659C35.4412 29.46 35.5174 29.46 35.5927 29.4507C35.666 29.4232 35.7311 29.3769 35.7816 29.3162C35.8385 29.2643 35.881 29.198 35.9046 29.1242C35.9613 28.9726 35.9613 28.8052 35.9046 28.6536C35.8751 28.5799 35.8334 28.5117 35.7816 28.452C35.7288 28.3963 35.6642 28.3536 35.5927 28.3271C35.5177 28.3137 35.4409 28.3137 35.3659 28.3271H21.3886C21.3133 28.3179 21.2371 28.3179 21.1618 28.3271C21.0914 28.3504 21.0292 28.3938 20.9823 28.452C20.9246 28.5089 20.8794 28.5776 20.8499 28.6536C20.8027 28.8068 20.8027 28.971 20.8499 29.1242C20.8769 29.1987 20.9226 29.2649 20.9823 29.3162C21.0312 29.3744 21.0926 29.4205 21.1618 29.4507C21.2368 29.4646 21.3136 29.4646 21.3886 29.4507Z" fill="white"/>
</g>
<defs>
<clipPath id="clip0_200_395">
<rect width="27" height="31" fill="white" transform="translate(15 13)"/>
</clipPath>
</defs>
</svg>
