<svg width="56" height="56" viewBox="0 0 56 56" fill="none" xmlns="http://www.w3.org/2000/svg">
<rect width="56" height="56" rx="8" fill="#14FFFF" fill-opacity="0.2"/>
<g clip-path="url(#clip0_216_466)">
<path d="M11 31.5685L14.1481 29.7363C14.1481 29.7363 18.4926 37.4061 19.7623 39.7176C19.8456 39.9072 19.9859 40.065 20.1632 40.1684C20.3405 40.2718 20.5455 40.3153 20.7487 40.2928C23.9249 40.2928 27.1045 40.2928 30.2876 40.2928C30.4812 40.3135 30.6763 40.2722 30.8456 40.1748C31.015 40.0774 31.1501 39.9287 31.2321 39.7496C32.8272 36.9089 34.4397 34.0682 36.0697 31.2276C36.1749 31.0705 36.2311 30.8849 36.2311 30.695C36.2311 30.505 36.1749 30.3195 36.0697 30.1623C34.2963 27.0518 30.4451 20.181 30.4451 20.181L33.5932 18.3381C33.5932 18.3381 38.3574 26.8068 39.8895 29.4912C40.1261 29.8586 40.2521 30.288 40.2521 30.727C40.2521 31.1659 40.1261 31.5952 39.8895 31.9626C37.8327 35.5631 35.7969 39.1779 33.7821 42.8068C33.5932 43.2037 33.2936 43.5356 32.9204 43.7609C32.5473 43.9863 32.1171 44.0953 31.6833 44.0745C27.5593 44.0745 23.4352 44.0745 19.3216 44.0745C18.9427 44.0958 18.5656 44.0069 18.2347 43.8182C17.9038 43.6295 17.6329 43.3488 17.4537 43.0092C15.2815 39.2809 11 31.5685 11 31.5685Z" fill="white"/>
<path d="M45.0106 24.4101L41.9359 26.1784C41.9359 26.1784 38.0636 19.3821 36.3321 16.2823C36.2451 16.0777 36.097 15.906 35.9087 15.7913C35.7205 15.6767 35.5015 15.6248 35.2828 15.6431C32.1276 15.6431 28.9795 15.6431 25.8383 15.6431C25.6243 15.6213 25.4088 15.6669 25.2211 15.7736C25.0334 15.8803 24.8825 16.043 24.7889 16.2396C23.2498 19.0305 21.6827 21.8073 20.0877 24.5698C19.9284 24.7868 19.8424 25.0502 19.8424 25.3209C19.8424 25.5915 19.9284 25.8549 20.0877 26.0719C21.8297 29.1185 25.597 35.8402 25.597 35.8402L22.5118 37.6724C22.5118 37.6724 18.1988 30.0665 16.2155 26.5725C15.9722 26.1959 15.8425 25.7553 15.8425 25.3049C15.8425 24.8545 15.9722 24.4139 16.2155 24.0372C18.2583 20.4864 20.2871 16.8894 22.3019 13.2463C22.5032 12.8379 22.8186 12.4989 23.2087 12.2715C23.5988 12.0442 24.0462 11.9385 24.4951 11.968C28.5982 11.968 32.7013 11.968 36.8044 11.968C37.182 11.9461 37.5578 12.0349 37.8871 12.2238C38.2164 12.4127 38.4854 12.6936 38.6618 13.0332L45.0106 24.4101Z" fill="white"/>
</g>
<defs>
<clipPath id="clip0_216_466">
<rect width="34" height="32" fill="white" transform="translate(11 12)"/>
</clipPath>
</defs>
</svg>
