<svg width="56" height="56" viewBox="0 0 56 56" fill="none" xmlns="http://www.w3.org/2000/svg">
<rect width="56" height="56" rx="8" fill="#9F9F9F" fill-opacity="0.2"/>
<path d="M14.2578 16.5253H24.3256V14.8126H12.6V22.4979H14.2578V16.5253ZM24.3365 40.3718H14.2578V34.3773H12.6V42.0626H24.3365V40.3718ZM24.4024 22.5748V34.3224H32.0878V32.7634H26.0932V22.5748H24.4024Z" fill="white"/>
<path d="M44 22.5638H42.2653V16.5473H32.1755V14.7797H44V22.5638Z" fill="white"/>
<path d="M44 42.1504H32.1647V40.3938H42.2324V34.3444H44V42.1504Z" fill="white"/>
<path d="M14.2578 16.5254V22.5309H12.6V14.8456H24.3256V16.5583L14.2578 16.5254Z" fill="white"/>
<path d="M24.3365 40.3718V42.0845H12.6V34.3992H14.2578V40.3937L24.3365 40.3718Z" fill="white"/>
<path d="M24.4025 22.5747H26.1042V32.7633H32.0988V34.3223H24.4134L24.4025 22.5747Z" fill="white"/>
</svg>
