<svg width="56" height="56" viewBox="0 0 56 56" fill="none" xmlns="http://www.w3.org/2000/svg">
<rect width="56" height="56" rx="8" fill="#FFB647" fill-opacity="0.2"/>
<g clip-path="url(#clip0_215_446)">
<path d="M35.11 18.03L36.34 13.09L33.34 12.34L32.14 17.15C31.35 16.95 30.54 16.77 29.74 16.58L30.93 11.71L27.93 10.96L26.7 15.89C26.04 15.74 25.4 15.5999 24.78 15.4399L20.64 14.4399L19.84 17.65C19.84 17.65 22.07 18.1599 22.02 18.1899C22.4361 18.2402 22.8158 18.4517 23.0776 18.7789C23.3394 19.1062 23.4623 19.523 23.42 19.9399L22.02 25.5599L20.02 33.4399C19.9768 33.5779 19.9067 33.706 19.8139 33.8168C19.7211 33.9277 19.6074 34.0191 19.4792 34.086C19.3511 34.1529 19.211 34.1938 19.067 34.2065C18.923 34.2192 18.7779 34.2034 18.64 34.16L16.46 33.61L14.97 37.05L18.88 38.05L21.02 38.6L19.78 43.6L22.78 44.35L24.01 39.41C24.83 39.63 25.62 39.84 26.4 40.03L25.18 44.95L28.18 45.7L29.42 40.7C34.55 41.7 38.42 41.28 40.02 36.65C41.33 32.92 39.96 30.76 37.26 29.36C38.2972 29.1521 39.2364 28.6067 39.931 27.8089C40.6257 27.0111 41.0367 26.0059 41.1 24.95C41.67 21.29 38.93 19.34 35.11 18.03ZM34.26 34.5699C33.33 38.2999 27.05 36.28 25.02 35.77L26.67 29.16C28.7 29.71 35.23 30.7099 34.26 34.5699V34.5699ZM35.19 24.8799C34.35 28.2799 29.12 26.5499 27.42 26.1299L28.92 20.1299C30.61 20.5599 36.07 21.3399 35.19 24.8799V24.8799Z" fill="#F7931A"/>
</g>
<defs>
<clipPath id="clip0_215_446">
<rect width="26.2" height="34.68" fill="white" transform="translate(15 11)"/>
</clipPath>
</defs>
</svg>
