<svg width="56" height="56" viewBox="0 0 56 56" fill="none" xmlns="http://www.w3.org/2000/svg">
<rect width="56" height="56" rx="8" fill="#D7D7D7" fill-opacity="0.2"/>
<path fill-rule="evenodd" clip-rule="evenodd" d="M28.6506 12C19.5786 12 12.245 19.3336 12.245 28.4056C12.245 35.6578 16.944 41.7963 23.4627 43.9692C24.2776 44.1322 24.5764 43.6161 24.5764 43.1815C24.5764 42.8012 24.5492 41.4975 24.5492 40.1394C19.9861 41.1172 19.0354 38.1838 19.0354 38.1838C18.302 36.2825 17.2156 35.7936 17.2156 35.7936C15.7217 34.7886 17.3242 34.7886 17.3242 34.7886C18.9811 34.8972 19.8502 36.4726 19.8502 36.4726C21.317 38.9715 23.68 38.2653 24.6307 37.8307C24.7665 36.7714 25.2011 36.038 25.6628 35.6306C22.0232 35.2503 18.1934 33.8379 18.1934 27.5364C18.1934 25.7438 18.8453 24.277 19.8774 23.1363C19.7144 22.7288 19.144 21.0448 20.0404 18.7904C20.0404 18.7904 21.4256 18.3558 24.5492 20.4744C25.853 20.1213 27.2654 19.9312 28.6506 19.9312C30.0358 19.9312 31.4482 20.1213 32.752 20.4744C35.8756 18.3558 37.2608 18.7904 37.2608 18.7904C38.1572 21.0448 37.5868 22.7288 37.4238 23.1363C38.4831 24.277 39.1078 25.7438 39.1078 27.5364C39.1078 33.8379 35.278 35.2232 31.6112 35.6306C32.2088 36.1467 32.7248 37.1245 32.7248 38.6727C32.7248 40.8728 32.6977 42.6383 32.6977 43.1815C32.6977 43.6161 32.9965 44.1322 33.8113 43.9692C40.3301 41.7963 45.029 35.6578 45.029 28.4056C45.0562 19.3336 37.6954 12 28.6506 12Z" fill="white"/>
<path d="M18.465 35.5491C18.4378 35.6306 18.302 35.6577 18.1934 35.6034C18.0847 35.5491 18.0033 35.4404 18.0576 35.359C18.0847 35.2775 18.2205 35.2503 18.3292 35.3046C18.4378 35.359 18.4922 35.4676 18.465 35.5491Z" fill="white"/>
<path d="M19.1169 36.2824C19.0354 36.3639 18.8724 36.3096 18.7909 36.2009C18.6823 36.0923 18.6551 35.9293 18.7366 35.8478C18.8181 35.7663 18.9539 35.8207 19.0625 35.9293C19.1712 36.0651 19.1983 36.2281 19.1169 36.2824Z" fill="white"/>
<path d="M19.7689 37.2332C19.6603 37.3146 19.4973 37.2332 19.4158 37.0973C19.3072 36.9615 19.3072 36.7714 19.4158 36.7171C19.5245 36.6356 19.6875 36.7171 19.7689 36.8529C19.8776 36.9887 19.8776 37.1517 19.7689 37.2332Z" fill="white"/>
<path d="M20.6652 38.1567C20.5837 38.2654 20.3936 38.2382 20.2306 38.1024C20.0948 37.9666 20.0405 37.7765 20.1491 37.695C20.2306 37.5863 20.4207 37.6135 20.5837 37.7493C20.7195 37.8579 20.7467 38.0481 20.6652 38.1567Z" fill="white"/>
<path d="M21.8874 38.6727C21.8602 38.8085 21.6701 38.8628 21.48 38.8085C21.2898 38.7542 21.1812 38.5912 21.2084 38.4826C21.2355 38.3467 21.4256 38.2924 21.6158 38.3467C21.8059 38.4011 21.9146 38.5369 21.8874 38.6727Z" fill="white"/>
<path d="M23.2183 38.7813C23.2183 38.9171 23.0553 39.0258 22.8652 39.0258C22.6751 39.0258 22.5121 38.9171 22.5121 38.7813C22.5121 38.6455 22.6751 38.5369 22.8652 38.5369C23.0553 38.5369 23.2183 38.6455 23.2183 38.7813Z" fill="white"/>
<path d="M24.4678 38.564C24.4949 38.6998 24.3591 38.8356 24.169 38.8628C23.9789 38.8899 23.8159 38.8084 23.7887 38.6726C23.7616 38.5368 23.8974 38.401 24.0875 38.3739C24.2776 38.3467 24.4406 38.4282 24.4678 38.564Z" fill="white"/>
</svg>
