<svg width="56" height="56" viewBox="0 0 56 56" fill="none" xmlns="http://www.w3.org/2000/svg">
<rect width="56" height="56" rx="8" fill="#7289DA" fill-opacity="0.2"/>
<path d="M25.2289 25.4243C24.3169 25.4243 23.5969 26.2243 23.5969 27.2003C23.5969 28.1763 24.3329 28.9763 25.2289 28.9763C26.1409 28.9763 26.8609 28.1763 26.8609 27.2003C26.8769 26.2243 26.1409 25.4243 25.2289 25.4243ZM31.0689 25.4243C30.1569 25.4243 29.4369 26.2243 29.4369 27.2003C29.4369 28.1763 30.1729 28.9763 31.0689 28.9763C31.9809 28.9763 32.7009 28.1763 32.7009 27.2003C32.7009 26.2243 31.9809 25.4243 31.0689 25.4243Z" fill="white"/>
<path d="M38.845 12H17.405C15.597 12 14.125 13.472 14.125 15.296V36.928C14.125 38.752 15.597 40.224 17.405 40.224H35.549L34.701 37.264L36.749 39.168L38.685 40.96L42.125 44V15.296C42.125 13.472 40.653 12 38.845 12ZM32.669 32.896C32.669 32.896 32.093 32.208 31.613 31.6C33.709 31.008 34.509 29.696 34.509 29.696C33.853 30.128 33.229 30.432 32.669 30.64C31.869 30.976 31.101 31.2 30.349 31.328C28.813 31.616 27.405 31.536 26.205 31.312C25.293 31.136 24.509 30.88 23.853 30.624C23.485 30.48 23.085 30.304 22.685 30.08C22.637 30.048 22.589 30.032 22.541 30C22.509 29.984 22.493 29.968 22.477 29.952C22.189 29.792 22.029 29.68 22.029 29.68C22.029 29.68 22.797 30.96 24.829 31.568C24.349 32.176 23.757 32.896 23.757 32.896C20.221 32.784 18.877 30.464 18.877 30.464C18.877 25.312 21.181 21.136 21.181 21.136C23.485 19.408 25.677 19.456 25.677 19.456L25.837 19.648C22.957 20.48 21.629 21.744 21.629 21.744C21.629 21.744 21.981 21.552 22.573 21.28C24.285 20.528 25.645 20.32 26.205 20.272C26.301 20.256 26.381 20.24 26.477 20.24C27.453 20.112 28.557 20.08 29.709 20.208C31.229 20.384 32.861 20.832 34.525 21.744C34.525 21.744 33.261 20.544 30.541 19.712L30.765 19.456C30.765 19.456 32.957 19.408 35.261 21.136C35.261 21.136 37.565 25.312 37.565 30.464C37.565 30.464 36.205 32.784 32.669 32.896V32.896Z" fill="white"/>
</svg>
