<svg width="56" height="56" viewBox="0 0 56 56" fill="none" xmlns="http://www.w3.org/2000/svg">
<rect width="56" height="56" rx="8" fill="#14FFFF" fill-opacity="0.18"/>
<path d="M39.9998 21.223C39.9948 21.1498 39.9809 21.0771 39.9584 21.007C39.9614 20.9822 39.9614 20.9569 39.9584 20.9321C39.9188 20.8414 39.8654 20.7573 39.8005 20.6827L33.1497 14.0319H33.1495C33.0748 13.9668 32.9908 13.9136 32.9 13.8738H17.5529C17.0938 13.8738 16.7217 14.2462 16.7217 14.7052V41.2259C16.7217 41.4464 16.8091 41.6577 16.965 41.8138C17.1211 41.9697 17.3324 42.0571 17.5529 42.0571H39.1688C39.3892 42.0571 39.6005 41.9697 39.7567 41.8138C39.9125 41.6577 39.9999 41.4464 39.9999 41.2259V21.2732V21.2231L39.9998 21.223ZM33.349 16.6256L37.1651 20.4416H33.349V16.6256ZM38.3372 40.3943H18.3845V15.4534H31.6865V21.273C31.6865 21.4935 31.7739 21.7047 31.9298 21.8609C32.086 22.0168 32.2973 22.1042 32.5177 22.1042H38.3374L38.3372 40.3943Z" fill="white"/>
<path d="M20.8787 24.5985C20.8787 24.819 20.9663 25.0305 21.1222 25.1864C21.2781 25.3423 21.4897 25.43 21.7101 25.43H35.0114C35.4707 25.43 35.8429 25.0578 35.8429 24.5985C35.8429 24.1395 35.4707 23.7673 35.0114 23.7673H21.7101C21.2508 23.7673 20.8787 24.1395 20.8787 24.5985Z" fill="white"/>
<path d="M33.3492 30.4182C33.8082 30.4182 34.1806 30.0461 34.1806 29.5868C34.1806 29.1278 33.8082 28.7556 33.3492 28.7556H23.3728C22.9138 28.7556 22.5414 29.1278 22.5414 29.5868C22.5414 30.0461 22.9138 30.4182 23.3728 30.4182H33.3492Z" fill="white"/>
<path d="M35.0117 33.7439H21.7104C21.2511 33.7439 20.8789 34.1161 20.8789 34.5751C20.8789 35.0344 21.2511 35.4065 21.7104 35.4065H35.0117C35.471 35.4065 35.8431 35.0344 35.8431 34.5751C35.8431 34.1161 35.471 33.7439 35.0117 33.7439V33.7439Z" fill="white"/>
</svg>
