<svg width="32" height="25" viewBox="0 0 32 25" fill="none" xmlns="http://www.w3.org/2000/svg">
<path fill-rule="evenodd" clip-rule="evenodd" d="M3.79467 5.10025C3.83467 4.71317 3.684 4.33134 3.39067 4.07154L0.404 0.528788V0H9.68133L16.852 15.4766L23.156 0H32V0.528788L29.4453 2.93917C29.2253 3.1045 29.116 3.37611 29.1613 3.6451V21.3562C29.116 21.6239 29.2253 21.8955 29.4453 22.0608L31.94 24.4712V25H19.3907V24.4712L21.976 22.0018C22.2293 21.7525 22.2293 21.679 22.2293 21.2972V6.98184L15.044 24.9423H14.0733L5.70667 6.98184V19.0193C5.63733 19.5245 5.808 20.0349 6.16933 20.3997L9.53067 24.4122V24.9423H0V24.4122L3.36133 20.3997C3.72133 20.0336 3.88133 19.5205 3.79467 19.0193V5.10025Z" fill="white"/>
</svg>
