<svg width="29" height="32" viewBox="0 0 29 32" fill="none" xmlns="http://www.w3.org/2000/svg">
<path d="M11.2289 13.4243C10.3169 13.4243 9.59686 14.2243 9.59686 15.2003C9.59686 16.1763 10.3329 16.9763 11.2289 16.9763C12.1409 16.9763 12.8609 16.1763 12.8609 15.2003C12.8769 14.2243 12.1409 13.4243 11.2289 13.4243ZM17.0689 13.4243C16.1569 13.4243 15.4369 14.2243 15.4369 15.2003C15.4369 16.1763 16.1729 16.9763 17.0689 16.9763C17.9809 16.9763 18.7009 16.1763 18.7009 15.2003C18.7009 14.2243 17.9809 13.4243 17.0689 13.4243Z" fill="white"/>
<path d="M24.845 0H3.405C1.597 0 0.125 1.472 0.125 3.296V24.928C0.125 26.752 1.597 28.224 3.405 28.224H21.549L20.701 25.264L22.749 27.168L24.685 28.96L28.125 32V3.296C28.125 1.472 26.653 0 24.845 0ZM18.669 20.896C18.669 20.896 18.093 20.208 17.613 19.6C19.709 19.008 20.509 17.696 20.509 17.696C19.853 18.128 19.229 18.432 18.669 18.64C17.869 18.976 17.101 19.2 16.349 19.328C14.813 19.616 13.405 19.536 12.205 19.312C11.293 19.136 10.509 18.88 9.853 18.624C9.485 18.48 9.085 18.304 8.685 18.08C8.637 18.048 8.589 18.032 8.541 18C8.509 17.984 8.493 17.968 8.477 17.952C8.189 17.792 8.029 17.68 8.029 17.68C8.029 17.68 8.797 18.96 10.829 19.568C10.349 20.176 9.757 20.896 9.757 20.896C6.221 20.784 4.877 18.464 4.877 18.464C4.877 13.312 7.181 9.136 7.181 9.136C9.485 7.408 11.677 7.456 11.677 7.456L11.837 7.648C8.957 8.48 7.629 9.744 7.629 9.744C7.629 9.744 7.981 9.552 8.573 9.28C10.285 8.528 11.645 8.32 12.205 8.272C12.301 8.256 12.381 8.24 12.477 8.24C13.453 8.112 14.557 8.08 15.709 8.208C17.229 8.384 18.861 8.832 20.525 9.744C20.525 9.744 19.261 8.544 16.541 7.712L16.765 7.456C16.765 7.456 18.957 7.408 21.261 9.136C21.261 9.136 23.565 13.312 23.565 18.464C23.565 18.464 22.205 20.784 18.669 20.896Z" fill="white"/>
</svg>
