<svg width="34" height="31" viewBox="0 0 34 31" fill="none" xmlns="http://www.w3.org/2000/svg">
<path d="M34 16.098C34 15.1092 33.6071 14.1608 32.9079 13.4615C32.2087 12.7623 31.2603 12.3695 30.2714 12.3695C29.7971 12.3642 29.3265 12.4535 28.8871 12.6321C28.4477 12.8108 28.0483 13.0753 27.7123 13.4101C25.187 11.5933 21.6754 10.4069 17.8113 10.2578L19.5061 2.31932L25.0074 3.47857C25.0306 3.99646 25.2054 4.49614 25.51 4.9156C25.8147 5.33505 26.2358 5.65583 26.7211 5.83813C27.2064 6.02043 27.7345 6.05622 28.24 5.94107C28.7455 5.82592 29.206 5.56489 29.5644 5.19037C29.9229 4.81585 30.1635 4.34433 30.2564 3.8343C30.3493 3.32428 30.2904 2.7982 30.087 2.32135C29.8836 1.8445 29.5447 1.43785 29.1123 1.15188C28.6799 0.8659 28.1731 0.713177 27.6546 0.712656C27.1638 0.711339 26.6829 0.850827 26.269 1.11458C25.855 1.37832 25.5254 1.75526 25.3192 2.20069L19.1637 0.905863C18.9902 0.874024 18.8111 0.905284 18.6586 0.993992C18.5118 1.09203 18.4057 1.24027 18.3604 1.41091L16.4859 10.2713C12.5337 10.39 8.99491 11.5492 6.43577 13.4236C6.04544 13.0483 5.57764 12.763 5.06526 12.5879C4.55289 12.4127 4.00836 12.3518 3.46995 12.4096C2.93154 12.4674 2.41231 12.6424 1.94876 12.9223C1.48522 13.2022 1.0886 13.5802 0.786778 14.0298C0.484959 14.4794 0.285267 14.9896 0.201735 15.5246C0.118203 16.0596 0.15286 16.6065 0.303268 17.1266C0.453677 17.6468 0.716188 18.1278 1.07235 18.5357C1.42851 18.9436 1.86969 19.2685 2.36486 19.4876C2.30293 19.8607 2.27232 20.2382 2.27334 20.6164C2.27334 26.3278 8.90339 30.9343 17.113 30.9343C25.3226 30.9343 31.9662 26.3278 31.9662 20.6164C31.9673 20.2483 31.9367 19.8809 31.8747 19.5181C32.5101 19.1997 33.0449 18.7117 33.42 18.108C33.7951 17.5044 33.9958 16.8087 34 16.098ZM8.57799 18.7453C8.57732 18.2216 8.73201 17.7094 9.02249 17.2736C9.31297 16.8379 9.72618 16.498 10.2098 16.2971C10.6935 16.0962 11.2259 16.0433 11.7396 16.1451C12.2534 16.2469 12.7254 16.4987 13.096 16.8688C13.4665 17.2389 13.719 17.7106 13.8214 18.2242C13.9238 18.7378 13.8716 19.2703 13.6714 19.7542C13.4711 20.2381 13.1318 20.6518 12.6964 20.9428C12.261 21.2338 11.749 21.3892 11.2253 21.3892C10.5243 21.3874 9.85251 21.1084 9.35653 20.6131C8.86055 20.1177 8.58068 19.4463 8.57799 18.7453ZM23.3566 25.7313C21.5432 27.5447 18.0926 27.6633 17.0825 27.6633C16.0724 27.6633 12.5913 27.5142 10.8083 25.7313C10.744 25.6669 10.693 25.5906 10.6582 25.5065C10.6234 25.4225 10.6055 25.3324 10.6055 25.2415C10.6055 25.1505 10.6234 25.0604 10.6582 24.9764C10.693 24.8924 10.744 24.816 10.8083 24.7517C10.8727 24.6874 10.949 24.6363 11.0331 24.6015C11.1171 24.5667 11.2072 24.5488 11.2981 24.5488C11.3891 24.5488 11.4792 24.5667 11.5632 24.6015C11.6473 24.6363 11.7236 24.6874 11.7879 24.7517C12.9201 25.8804 15.3572 26.2973 17.113 26.2973C18.8688 26.2973 21.2754 25.8804 22.4347 24.7517C22.5653 24.6231 22.7412 24.5511 22.9245 24.5511C23.1077 24.5511 23.2836 24.6231 23.4143 24.7517C23.5221 24.8954 23.5755 25.0727 23.565 25.252C23.5544 25.4314 23.4806 25.6012 23.3566 25.7313ZM22.8787 21.3892C22.355 21.3892 21.843 21.2338 21.4076 20.9428C20.9722 20.6518 20.6329 20.2381 20.4326 19.7542C20.2323 19.2703 20.1801 18.7378 20.2825 18.2242C20.385 17.7106 20.6374 17.2389 21.008 16.8688C21.3786 16.4987 21.8506 16.2469 22.3643 16.1451C22.8781 16.0433 23.4104 16.0962 23.8941 16.2971C24.3778 16.498 24.791 16.8379 25.0815 17.2736C25.372 17.7094 25.5266 18.2216 25.526 18.7453C25.5251 19.4468 25.2458 20.1193 24.7494 20.615C24.253 21.1108 23.5802 21.3892 22.8787 21.3892Z" fill="white"/>
</svg>
