<svg width="34" height="28" viewBox="0 0 34 28" fill="none" xmlns="http://www.w3.org/2000/svg">
<path d="M30.533 7.06899C30.5537 7.36326 30.5537 7.65753 30.5537 7.95452C30.5537 17.0037 23.5647 27.4402 10.7851 27.4402V27.4348C7.01001 27.4402 3.3133 26.3743 0.135254 24.3646C0.684189 24.4297 1.23588 24.4622 1.78894 24.4636C4.91745 24.4663 7.95655 23.4316 10.4178 21.5263C7.44476 21.4707 4.83766 19.5599 3.9269 16.7705C4.96836 16.9685 6.04146 16.9278 7.06367 16.6525C3.82234 16.007 1.49039 13.1999 1.49039 9.93983C1.49039 9.91 1.49039 9.88152 1.49039 9.85304C2.45619 10.3833 3.53755 10.6775 4.64368 10.7101C1.59083 8.69901 0.649794 4.69583 2.49334 1.56597C6.02083 5.84444 11.2254 8.44542 16.8124 8.72071C16.2525 6.34212 17.0174 3.84963 18.8224 2.17756C21.6208 -0.415283 26.0219 -0.282386 28.6524 2.47455C30.2084 2.17214 31.6997 1.60936 33.0645 0.81198C32.5458 2.39725 31.4603 3.74385 30.0103 4.59954C31.3874 4.43953 32.7329 4.07609 34 3.52145C33.0672 4.89924 31.8923 6.09938 30.533 7.06899Z" fill="white"/>
</svg>
