<svg width="34" height="28" viewBox="0 0 34 28" fill="none" xmlns="http://www.w3.org/2000/svg">
<path fill-rule="evenodd" clip-rule="evenodd" d="M2.33732 12.0538C11.4641 8.10237 17.5501 5.49734 20.5952 4.23871C29.2896 0.645084 31.0963 0.0208329 32.2738 0.000219782C32.5328 -0.00431385 33.1119 0.0594683 33.487 0.361928C33.8037 0.61732 33.8908 0.962317 33.9325 1.20446C33.9742 1.44659 34.0262 1.99819 33.9849 2.4292C33.5137 7.3486 31.4751 19.2867 30.4379 24.7965C29.999 27.1279 29.1349 27.9096 28.2983 27.9861C26.4802 28.1524 25.0996 26.7921 23.3387 25.6451C20.5833 23.8502 19.0266 22.7328 16.3519 20.9813C13.2609 18.9572 15.2647 17.8447 17.0263 16.0265C17.4873 15.5507 25.4978 8.31018 25.6529 7.65336C25.6722 7.57121 25.6902 7.265 25.5072 7.10332C25.3241 6.94163 25.0539 6.99692 24.859 7.04089C24.5826 7.10322 20.1807 9.99446 11.6533 15.7146C10.4038 16.5672 9.27208 16.9826 8.25809 16.9608C7.14025 16.9368 4.98997 16.3328 3.39146 15.8164C1.43082 15.1831 -0.127454 14.8482 0.00823682 13.7727C0.078913 13.2124 0.855275 12.6395 2.33732 12.0538Z" fill="white"/>
</svg>
