<svg width="56" height="56" viewBox="0 0 56 56" fill="none" xmlns="http://www.w3.org/2000/svg">
<rect width="56" height="56" rx="8" fill="#D7D7D7" fill-opacity="0.2"/>
<g clip-path="url(#clip0_1030_932)">
<path d="M11.9646 19.0464C14.0275 19.0464 16.0903 19.0464 18.1859 19.0464C18.1859 19.1766 18.1859 19.3069 18.1859 19.4371C18.1859 19.9906 18.1531 20.5441 18.1859 21.0975C18.2841 22.1069 18.546 23.0836 18.9717 24.0278C19.3646 24.8743 19.8558 25.6231 20.5106 26.2743C21.2965 27.0882 22.246 27.7069 23.3593 28.0324C23.4576 28.065 23.4903 28.0975 23.4903 28.1952C23.4576 28.7162 23.5558 29.2045 23.4248 29.7255C23.2283 30.572 22.7372 31.158 21.9841 31.4836C21.6239 31.6464 21.2637 31.7115 20.8708 31.7115C19.6266 31.7115 18.3496 31.7115 17.1053 31.7115C16.516 31.7115 15.9593 31.6138 15.4682 31.2557C14.7478 30.7348 14.4204 29.9859 14.4204 29.0743C14.4204 26.6324 14.4204 24.158 14.4204 21.7162C14.4204 21.651 14.4204 21.5859 14.4204 21.5208C14.4204 21.1627 14.1912 20.9673 13.8637 20.8696C13.0124 20.6092 12.3903 20.0231 11.9974 19.2417C11.9974 19.2092 11.9646 19.1441 11.9646 19.1115C11.9646 19.1115 11.9646 19.0789 11.9646 19.0464ZM15.5991 24.5487C15.5991 25.0045 15.9266 25.3627 16.385 25.3627C16.8106 25.3627 17.2036 25.0045 17.2036 24.5487C17.2036 24.0929 16.8434 23.7348 16.385 23.7022C15.9921 23.7348 15.5664 24.0603 15.5991 24.5487Z" fill="white"/>
<path d="M22.4752 24.5487C22.4752 24.9394 22.1151 25.2976 21.7222 25.2976C21.3292 25.2976 20.9691 24.9394 20.9691 24.5162C20.9691 24.1255 21.3292 23.7673 21.7222 23.7673C22.1478 23.7999 22.5407 24.1906 22.4752 24.5487Z" fill="white"/>
<path d="M15.5991 24.5488C15.5664 24.0604 15.992 23.7349 16.385 23.7349C16.8434 23.7349 17.2036 24.1256 17.2036 24.5814C17.2036 25.0372 16.8106 25.3953 16.385 25.3953C15.9266 25.3628 15.5991 25.0046 15.5991 24.5488Z" fill="black"/>
<path d="M45.9522 32.9813C45.985 32.9813 45.985 32.9813 45.9522 32.9813C46.0177 32.9813 46.0177 32.9813 46.0504 32.9813C46.0832 32.9813 46.1487 32.9487 46.1814 32.9487C46.2142 32.9162 46.2142 32.9162 46.2469 32.8836C46.6071 32.6557 46.5743 32.2975 46.5743 31.9394C46.5743 30.3115 46.5743 28.651 46.5743 27.0231C46.5743 26.5022 46.5089 25.9813 46.3451 25.4603C45.7558 23.6696 44.0858 22.3673 42.1212 22.3673C40.0257 22.3348 37.9301 22.3348 35.8345 22.3348C32.2327 22.3348 28.631 22.3348 25.0619 22.3022C25.0292 22.3022 24.9637 22.3022 24.931 22.3022C24.8655 22.3022 24.8327 22.2696 24.7673 22.2696C24.7018 22.1069 24.7673 22.0092 24.931 21.9441C24.9965 21.9115 25.0292 21.9115 25.0947 21.8789C26.077 21.3906 26.7646 20.5766 27.1903 19.5673C27.354 19.2092 27.485 18.8185 27.5177 18.4278C27.5177 17.972 27.2885 17.7115 26.8301 17.7115C25.946 17.7115 25.0619 17.7115 24.1779 17.6789C24.0796 17.6789 24.0142 17.6789 23.9159 17.6789C23.9159 17.5813 23.9159 17.5162 23.9159 17.4185C23.9159 16.9952 23.9159 16.572 23.9159 16.1813C23.9159 15.9859 23.8832 15.7906 23.8504 15.6278C23.6212 14.8138 22.8027 14.2603 21.8531 14.4557C21.1982 14.5859 20.6089 15.2045 20.5761 15.8557C20.5434 16.3766 20.5434 16.8975 20.5434 17.4185C20.5434 17.5162 20.5434 17.6138 20.5434 17.6789H17.4327C17.4327 17.5813 17.4327 17.4836 17.4327 17.3859C17.4327 16.9301 17.4327 16.4743 17.4327 16.0185C17.4 14.9115 16.3195 14.0975 15.1735 14.4882C14.4858 14.7162 14.0274 15.3999 14.0274 16.1487C14.0274 16.572 14.0274 16.9952 14.0274 17.4185C14.0274 17.5162 14.0274 17.5813 14.0274 17.6789C13.9292 17.6789 13.831 17.6789 13.7327 17.6789C12.8487 17.6789 11.9646 17.6789 11.0805 17.7115C10.6549 17.7115 10.3929 17.972 10.4257 18.3952C10.4584 18.6557 10.5239 18.9162 10.5894 19.1441C10.9823 20.3487 11.7354 21.2929 12.8814 21.8789C13.1106 22.0092 13.1761 22.1069 13.1761 22.3673C13.1761 24.6789 13.1761 26.958 13.1761 29.2696C13.1761 29.5952 13.2089 29.9208 13.3071 30.2138C13.7655 31.7115 14.7478 32.6557 16.254 32.9487C16.2867 32.9487 16.3195 32.9813 16.3522 32.9813H16.385C16.385 32.9813 16.4177 32.9813 16.4504 32.9813C16.4832 32.9813 16.5159 32.9813 16.5159 33.0138C16.5487 33.0138 16.5814 33.0138 16.6142 33.0138C16.7451 33.0138 16.8434 33.0138 16.9743 33.0138C17.0071 33.0138 17.0398 33.0138 17.0726 33.0138C17.269 33.0138 17.4655 33.0138 17.6619 33.0138C17.7274 33.0138 17.7602 33.0138 17.8257 33.0138H20.2159C20.2487 33.0138 20.2814 33.0138 20.3142 33.0138C20.6416 33.0138 20.8381 33.1766 21.0018 33.4371C21.0673 33.5999 21.1655 33.7952 21.1655 33.9906C21.1655 34.0231 21.1655 34.0231 21.1655 34.0557C21.1655 34.1859 21.1655 34.3487 21.1655 34.4789C21.1655 34.5115 21.1655 34.5115 21.1655 34.5441C21.1982 35.065 21.1982 35.6185 21.231 36.1394C21.2637 36.9534 21.2965 37.7673 21.3292 38.5813C21.3619 39.1999 21.3619 39.8185 21.3619 40.4371C21.3947 41.0557 21.8204 41.5115 22.377 41.5441C23.6867 41.5441 24.9637 41.5441 26.2735 41.5441C26.7319 41.5441 27.1248 41.2185 27.223 40.7627C27.354 40.2092 27.485 39.6231 27.5832 39.0696C27.7142 38.4836 27.8451 37.9301 27.9761 37.3441C28.0416 37.3441 28.0416 37.3115 28.0743 37.3115C30.7593 37.3115 33.4115 37.3115 36.0965 37.3115C36.2602 37.3115 36.2929 37.3766 36.3257 37.5069C36.3912 37.865 36.4894 38.2231 36.5549 38.6138C36.7186 39.2976 36.8496 40.0138 37.0133 40.6976C37.1115 41.1534 37.5372 41.5441 37.9956 41.5766C39.3053 41.5766 40.5823 41.5766 41.892 41.5766C42.4159 41.5766 42.8743 41.1208 42.9071 40.5673C42.9398 39.9162 42.9726 39.265 43.0053 38.5813C43.0381 37.7673 43.1035 36.9534 43.1363 36.1069C43.169 35.6185 43.169 35.1627 43.2018 34.6743C43.2345 33.8278 43.3 33.0138 43.3327 32.1673C43.3982 31.2557 43.431 30.3115 43.4637 29.3999C43.4965 28.6185 43.562 27.8371 43.562 27.0557C43.562 25.9162 43.169 24.9069 42.4814 24.0603C42.4487 24.0278 42.4159 23.9627 42.3832 23.8975C42.4487 23.8975 42.4814 23.8975 42.5142 23.8975C43.9221 24.0929 45.0354 25.3952 45.0354 26.8278C45.0354 28.5534 45.0354 30.2464 45.0354 31.972C45.0354 32.2976 45.0681 32.6231 45.3301 32.851C45.592 32.9487 45.7558 32.9813 45.9522 32.9813ZM21.8204 16.1162C21.8204 15.9208 22.0168 15.7255 22.2133 15.7255C22.377 15.7255 22.6062 15.8557 22.6062 16.051C22.6062 16.6045 22.6062 17.1255 22.6062 17.6789H21.8204C21.8204 17.1255 21.8204 16.6045 21.8204 16.1162ZM21.7549 23.7999C22.1478 23.7999 22.5407 24.1906 22.508 24.5813C22.508 24.972 22.1478 25.3301 21.7549 25.3301C21.3619 25.3301 21.0018 24.972 21.0018 24.5487C21.0018 24.158 21.3619 23.7999 21.7549 23.7999ZM15.3044 16.2138C15.3044 16.1162 15.3044 16.0185 15.3699 15.9534C15.4354 15.7906 15.6319 15.6929 15.7628 15.7255C15.9593 15.758 16.0903 15.9208 16.0903 16.1162C16.0903 16.6045 16.0903 17.0929 16.0903 17.5813C16.0903 17.6138 16.0903 17.6138 16.0575 17.6789H15.3372C15.3372 17.6138 15.3044 17.5813 15.3044 17.5162C15.3044 17.0929 15.3044 16.6371 15.3044 16.2138ZM21.9841 31.5162C21.6239 31.6789 21.2637 31.7441 20.8708 31.7441C19.6265 31.7441 18.3496 31.7441 17.1053 31.7441C16.5159 31.7441 15.9593 31.6464 15.4681 31.2882C14.7478 30.7673 14.4204 30.0185 14.4204 29.1069C14.4204 26.665 14.4204 24.1906 14.4204 21.7487C14.4204 21.6836 14.4204 21.6185 14.4204 21.5534C14.4204 21.1952 14.1912 20.9999 13.8637 20.9022C13.0124 20.6417 12.3903 20.0557 11.9973 19.2743C11.9973 19.2092 11.9646 19.1441 11.9646 19.1115C11.9646 19.1115 11.9646 19.0789 11.9646 19.0464H18.1858C18.1858 19.1766 18.1858 19.3069 18.1858 19.4371C18.1858 19.9906 18.1531 20.5441 18.1858 21.0975C18.2841 22.1069 18.546 23.0836 18.9717 24.0278C19.3646 24.8743 19.8558 25.6231 20.5106 26.2743C21.2965 27.0882 22.246 27.7069 23.3593 28.0324C23.4575 28.065 23.4903 28.0975 23.4903 28.1952C23.4575 28.7162 23.5558 29.2045 23.4248 29.7255C23.2611 30.572 22.7699 31.158 21.9841 31.5162ZM42.154 27.4789C42.0885 28.2929 42.0558 29.1069 42.023 29.9208C41.9575 30.9627 41.9248 32.0045 41.8593 33.0464C41.7938 34.2185 41.7283 35.4231 41.6628 36.5952C41.6301 37.3115 41.5646 38.0278 41.5319 38.7441C41.4991 39.1999 41.4664 39.6231 41.4336 40.1115H38.4212C38.0611 38.7115 37.7991 37.3115 37.4389 35.8789C37.3407 35.8789 37.2752 35.8464 37.2097 35.8464C33.8044 35.8464 30.3991 35.8464 27.0266 35.8464C26.7646 35.8464 26.7646 35.8789 26.6991 36.1069C26.5681 36.7255 26.4044 37.3766 26.2735 37.9952C26.1425 38.5813 26.0115 39.1999 25.8805 39.7859C25.815 40.0789 25.815 40.0789 25.5531 40.0789C24.7018 40.0789 23.8832 40.0789 23.0646 40.0789C22.8027 40.0789 22.8027 40.0789 22.8027 39.7859C22.8027 38.158 22.7699 36.5301 22.7699 34.9348C22.7699 34.2185 22.7699 33.5022 22.7372 32.7859C22.7372 32.6231 22.7699 32.5255 22.9336 32.4603C23.7522 31.972 24.3416 31.2557 24.6363 30.3115C24.7345 30.0185 24.7673 29.7255 24.7673 29.4324C24.7673 27.6743 24.7673 25.9162 24.7673 24.158C24.7673 24.0929 24.7673 24.0278 24.7673 23.9627C24.7673 23.8324 24.8327 23.7999 24.931 23.7999C24.9965 23.7999 25.0619 23.7999 25.1274 23.7999C26.208 23.7999 27.2558 23.7999 28.3363 23.7999H38.5522V23.8324C39.0761 23.8324 39.5673 23.8324 40.0912 23.8324C40.2549 23.8324 40.3858 23.8975 40.4841 24.0278C40.7133 24.2882 40.9097 24.5162 41.1389 24.7441C41.8593 25.4929 42.2522 26.4045 42.154 27.4789Z" fill="black"/>
<path d="M45.985 33.4046H45.9522C45.7558 33.4046 45.4938 33.372 45.2319 33.2418L45.0682 33.1767L45.0354 33.079C44.7407 32.7534 44.708 32.3302 44.708 31.972C44.708 30.4418 44.708 28.9116 44.708 27.3813V26.8279C44.708 25.9162 44.1841 25.0697 43.3982 24.6139C43.8239 25.3953 44.0531 26.2092 44.0204 27.0883C44.0204 27.6418 43.9876 28.1953 43.9549 28.7162C43.9549 28.9767 43.9221 29.2046 43.9221 29.4651L43.8894 30.4418C43.8566 31.0604 43.8239 31.6465 43.7912 32.2651C43.7584 32.7534 43.7257 33.2092 43.6929 33.6976C43.6602 34.0558 43.6602 34.4139 43.6274 34.772C43.6274 35.0325 43.5947 35.293 43.5947 35.5534C43.5947 35.7813 43.562 35.9767 43.562 36.2046C43.5292 36.693 43.4965 37.1488 43.4965 37.6371L43.3982 39.1348C43.3655 39.6232 43.3328 40.1441 43.3328 40.6325C43.3 41.3813 42.6451 41.9999 41.9248 41.9999C40.6151 41.9999 39.3381 41.9999 38.0283 41.9999C37.3735 41.9999 36.7841 41.479 36.6531 40.8278C36.5549 40.372 36.4566 39.8837 36.3584 39.4278L36.162 38.5488C36.0965 38.2883 36.0637 38.0604 35.9982 37.7999C34.0009 37.7999 32.0363 37.7999 30.0717 37.7999H28.3363L28.2708 38.0278C28.1726 38.4185 28.0744 38.8092 28.0089 39.2325C27.9761 39.4604 27.9106 39.6558 27.8779 39.8837C27.8124 40.2418 27.7142 40.5674 27.6487 40.9255C27.485 41.5767 26.9283 42.0325 26.3062 42.0325C25.6186 42.0325 24.9637 42.0325 24.3089 42.0325C23.654 42.0325 23.0319 42.0325 22.4097 42.0325C21.6239 42.0325 21.0018 41.3813 21.0018 40.5348C21.0018 40.2418 21.0018 39.9162 20.969 39.6232C20.969 39.2976 20.969 39.0046 20.9363 38.679C20.9363 38.1255 20.9036 37.572 20.8708 37.0185L20.7726 34.5767V34.5441C20.7726 34.4139 20.7726 34.2837 20.7726 34.1534V34.1209V34.0558C20.7726 33.9906 20.7398 33.893 20.6416 33.6651C20.5761 33.5348 20.4779 33.4697 20.3142 33.4697H20.2814C20.2487 33.4697 20.2159 33.4697 20.2159 33.4697H19.8558H17.8257C17.7929 33.4697 17.7274 33.4697 17.6947 33.4697H17.662H17.531C17.3673 33.4697 17.2036 33.4697 17.0398 33.4697C17.0071 33.4697 17.0071 33.4697 16.9743 33.4697C16.8434 33.4697 16.7124 33.4697 16.6142 33.4697L16.3522 33.4372L16.1885 33.372C14.5513 33.0465 13.4381 32.0372 12.9469 30.3767C12.8487 30.0837 12.8159 29.7255 12.8159 29.3023C12.8159 27.0883 12.8159 24.7767 12.8159 22.3999C12.8159 22.3348 12.8159 22.3023 12.8159 22.3023C12.8159 22.3023 12.7832 22.3023 12.7505 22.2697C11.539 21.6511 10.7204 20.6744 10.262 19.3069C10.1637 19.0465 10.0982 18.7534 10.0655 18.4604C10.0328 18.1674 10.131 17.8744 10.3274 17.679C10.5239 17.4837 10.8186 17.3534 11.1133 17.3534C11.7682 17.3534 12.423 17.3534 13.0779 17.3534H13.6673V17.2232C13.6673 16.8651 13.6673 16.5069 13.6673 16.1813C13.6673 15.2372 14.2239 14.4232 15.0752 14.1302C15.7301 13.9023 16.4177 13.9999 16.9743 14.3906C17.4982 14.7813 17.8257 15.3674 17.8584 16.0185C17.8584 16.3441 17.8584 16.6697 17.8584 16.9627C17.8584 17.0604 17.8584 17.1581 17.8584 17.2883H20.1832C20.1832 17.1581 20.1832 17.0279 20.1832 16.8976C20.1832 16.5395 20.1832 16.1813 20.2159 15.8232C20.2487 14.9767 20.9363 14.2279 21.7876 14.0325C22.8682 13.8046 23.9487 14.4558 24.2434 15.4976C24.3089 15.693 24.3089 15.8883 24.3416 16.1488C24.3416 16.4418 24.3416 16.7023 24.3416 16.9953C24.3416 17.093 24.3416 17.1906 24.3416 17.2558H25.2912C25.8151 17.2558 26.339 17.2558 26.8628 17.2558C27.1903 17.2558 27.485 17.3534 27.6814 17.5488C27.8779 17.7441 27.9761 18.0372 27.9434 18.3627C27.9434 18.8511 27.7469 19.2744 27.5832 19.6651C27.1903 20.5767 26.6009 21.293 25.8478 21.8139H28.3363C30.8575 21.8139 33.346 21.8139 35.8673 21.8139C38.192 21.8139 40.1566 21.8139 42.154 21.8465C44.2496 21.879 46.0832 23.2139 46.7381 25.2325C46.9018 25.7209 46.9673 26.2744 47 26.9255C47 27.9348 47 28.9441 47 29.9534C47 30.572 47 31.2232 47 31.8418C47 32.1023 47 32.4278 46.8363 32.7209L45.985 33.4046ZM21.5584 34.6092L21.6567 36.9534C21.6894 37.5069 21.6894 38.0604 21.7221 38.6139C21.7221 38.9395 21.7221 39.2325 21.7549 39.5581C21.7549 39.8511 21.7549 40.1767 21.7876 40.4697C21.7876 40.8604 22.0823 41.1534 22.4097 41.186C23.6213 41.186 24.8982 41.186 26.3062 41.186C26.5682 41.186 26.8301 40.9906 26.8956 40.6976C26.9611 40.3395 27.0593 40.0139 27.1248 39.6558C27.1575 39.4278 27.223 39.1999 27.2558 39.0046C27.354 38.6139 27.4522 38.2232 27.5177 37.7999L27.6814 37.0511L27.9434 36.986C27.9761 36.986 28.0416 36.9534 28.1071 36.9534H30.0717C32.1018 36.9534 34.0991 36.9534 36.1292 36.9534C36.4566 36.9534 36.6859 37.1488 36.7513 37.4744C36.8168 37.7674 36.8823 38.0604 36.9478 38.3209L37.1443 39.1999C37.2425 39.6883 37.3407 40.1441 37.439 40.6325C37.5044 40.9255 37.7664 41.186 38.0611 41.186C39.3708 41.186 40.6478 41.186 41.9575 41.186C42.2522 41.186 42.5469 40.893 42.5797 40.5674C42.6124 40.079 42.6451 39.5581 42.6451 39.0697L42.7434 37.572C42.7761 37.0837 42.8089 36.6278 42.8089 36.1395C42.8089 35.9116 42.8416 35.7162 42.8416 35.4883C42.8416 35.2278 42.8743 34.9674 42.8743 34.7069C42.9071 34.3488 42.9071 33.9906 42.9398 33.6325C42.9726 33.1441 43.0053 32.6883 43.0381 32.1999C43.0708 31.5813 43.1035 30.9953 43.1363 30.3767L43.169 29.3999C43.169 29.1395 43.2018 28.9116 43.2018 28.6511C43.2345 28.1302 43.2673 27.5767 43.2673 27.0558C43.2673 26.079 42.9398 25.1348 42.285 24.3209C42.2522 24.2883 42.2195 24.2232 42.1867 24.1906L41.7611 23.572L42.4814 23.5069C42.5142 23.5069 42.5797 23.5069 42.6451 23.5069C44.2168 23.7348 45.5266 25.1999 45.5266 26.8279V27.3813C45.5266 28.9116 45.5266 30.4418 45.5266 31.972C45.5266 32.2325 45.5593 32.3953 45.6575 32.5255C45.723 32.5581 45.7885 32.5581 45.854 32.5581H45.985H46.0177C46.0177 32.5581 46.0177 32.5581 46.0505 32.5581H46.0832C46.2469 32.4604 46.2469 32.3302 46.2469 31.972C46.2469 31.3209 46.2469 30.7023 46.2469 30.0511C46.2469 29.0418 46.2469 28.0325 46.2469 27.0232C46.2469 26.4697 46.1814 26.0139 46.0505 25.5906C45.4938 23.9302 43.9549 22.7906 42.2195 22.7581C40.2221 22.7255 38.2575 22.7255 35.9328 22.7255C33.4115 22.7255 30.923 22.7255 28.4018 22.7255H25.1602H25.062C24.9965 22.7255 24.9637 22.7255 24.8982 22.7255C24.8328 22.7255 24.8 22.693 24.7345 22.693L24.4726 22.6278L24.4071 22.3999C24.2761 22.0418 24.4398 21.7162 24.8 21.586C24.8328 21.5534 24.8982 21.5534 24.931 21.5209C25.7823 21.0651 26.4372 20.3813 26.8628 19.4046C26.9938 19.079 27.1248 18.7534 27.1575 18.4279C27.1575 18.2976 27.1575 18.2325 27.092 18.1999C27.0593 18.1674 26.9611 18.1348 26.8628 18.1348C26.339 18.1348 25.8151 18.1348 25.2912 18.1348H24.2106C24.1451 18.1348 24.0797 18.1348 24.0142 18.1348L23.5558 18.1023L23.523 17.6465C23.523 17.5813 23.523 17.5162 23.523 17.4511C23.523 17.3209 23.523 17.1581 23.523 17.0279C23.523 16.7674 23.523 16.4744 23.523 16.2139C23.523 16.0837 23.523 15.8883 23.4575 15.7581C23.2938 15.2046 22.7044 14.7162 21.9186 14.8465C21.4274 14.9441 20.969 15.4325 20.9363 15.8883C20.9036 16.2139 20.9036 16.572 20.9036 16.9302C20.9036 17.093 20.9036 17.2558 20.9036 17.4185C20.9036 17.4837 20.9036 17.5488 20.8708 17.6139L20.8381 18.0697H17.0071V17.386C17.0071 17.2558 17.0071 17.093 17.0071 16.9627C17.0071 16.6697 17.0071 16.3441 17.0071 16.0511C17.0071 15.6279 16.8106 15.2697 16.4505 15.0418C16.123 14.8139 15.6646 14.7488 15.2717 14.879C14.7478 15.0418 14.4204 15.5627 14.4204 16.1488C14.4204 16.5069 14.4204 16.8651 14.4204 17.2232V17.4511C14.4204 17.5162 14.4204 17.5813 14.4204 17.6465L14.3876 18.1023H13.0451C12.3903 18.1023 11.7354 18.1023 11.0805 18.1023C10.9823 18.1023 10.9168 18.1348 10.8513 18.1674C10.8186 18.1999 10.8186 18.2976 10.8186 18.3627C10.8186 18.5906 10.9168 18.8185 10.9823 19.0139C11.3425 20.1534 12.0628 20.9999 13.0451 21.4883C13.4053 21.6837 13.569 21.9441 13.569 22.3348C13.569 24.7116 13.569 27.0232 13.569 29.2372C13.569 29.5627 13.6018 29.8558 13.6673 30.0837C14.0929 31.4511 14.9443 32.2651 16.3195 32.5255C16.385 32.5255 16.4505 32.5581 16.4832 32.5906C16.4832 32.5906 16.4832 32.5906 16.5159 32.5906H16.5487C16.5814 32.5906 16.5814 32.5906 16.6142 32.5906C16.7124 32.5906 16.8106 32.5906 16.9416 32.5906C16.9416 32.5906 16.9743 32.5906 17.0071 32.5906C17.1708 32.5906 17.3345 32.5906 17.531 32.5906H17.5965C17.662 32.5906 17.7274 32.5906 17.7929 32.5906H20.5761V32.6232C20.9036 32.6883 21.1655 32.9162 21.3292 33.2418C21.3947 33.4046 21.5257 33.6651 21.5257 33.9255C21.5257 33.9581 21.5257 33.9906 21.5257 34.0558C21.5257 34.186 21.5257 34.3162 21.5257 34.4465C21.5584 34.5441 21.5584 34.5767 21.5584 34.6092ZM16.3195 33.4046C16.3195 33.4046 16.3522 33.4046 16.3195 33.4046V33.4046ZM23.0646 40.5348C22.5735 40.5348 22.4097 40.3395 22.4097 39.8511L22.377 34.7069C22.377 34.0883 22.377 33.4372 22.3443 32.8185C22.3443 32.5255 22.4752 32.2976 22.7372 32.1348C23.4903 31.679 24.0142 31.0278 24.2761 30.2139C24.3416 29.986 24.3744 29.7255 24.3744 29.4325C24.3744 28.0976 24.3744 26.7953 24.3744 25.4604V24.1255V24.093C24.3744 24.0604 24.3744 24.0278 24.3744 23.9627C24.3744 23.7348 24.4398 23.6046 24.5381 23.5395C24.6036 23.4744 24.7345 23.3767 24.9637 23.3767H25.7823C26.5354 23.3767 27.2885 23.3767 28.0744 23.3767H28.3363H38.9451V23.4418C39.3053 23.4418 39.6982 23.4418 40.0584 23.4418C40.3531 23.4418 40.5823 23.5395 40.746 23.7674C40.9425 23.9953 41.1717 24.2232 41.4009 24.4837C42.2522 25.3302 42.6451 26.372 42.5469 27.5441C42.5142 28.0976 42.4814 28.6837 42.4487 29.2372L42.2522 33.079C42.1867 34.2511 42.1213 35.4558 42.0558 36.6278C42.023 37.2139 41.9903 37.7999 41.9575 38.4185L41.8266 40.5348H38.1593L38.0938 40.2418C37.8974 39.493 37.7336 38.7116 37.5699 37.9627C37.4389 37.4092 37.308 36.8558 37.177 36.3023C33.8372 36.3023 30.4974 36.3023 27.1248 36.3023C27.0266 36.693 26.9611 37.0837 26.8628 37.4744L26.6664 38.2883C26.5354 38.8418 26.4044 39.3953 26.2735 39.9813C26.1752 40.4372 26.0115 40.5674 25.5531 40.5674L23.0646 40.5348ZM23.1628 32.8185C23.1628 33.4697 23.1628 34.0883 23.1956 34.7069V39.7209H25.5204C25.6513 39.1674 25.7823 38.6139 25.8805 38.0604L26.077 37.2465C26.1752 36.8558 26.2735 36.4651 26.339 36.0418C26.4372 35.6511 26.5682 35.4558 27.0266 35.4558C30.4319 35.4558 33.8372 35.4558 37.2097 35.4558C37.2752 35.4558 37.3407 35.4558 37.4062 35.4558L37.7664 35.4883L37.8319 35.7813C37.9956 36.4325 38.1266 37.0837 38.2903 37.7348C38.4213 38.386 38.585 39.0372 38.7487 39.6883H41.1062L41.2044 38.3209C41.2372 37.7348 41.2699 37.1488 41.3027 36.5627C41.3682 35.3906 41.4336 34.186 41.4991 33.0139L41.6956 29.172C41.7283 28.586 41.7611 28.0325 41.7938 27.4465C41.8593 26.5023 41.5646 25.7209 40.877 25.0046C40.6478 24.7441 40.3859 24.5162 40.1894 24.2558C40.1566 24.2232 40.1566 24.2232 40.0912 24.2232C39.5673 24.2232 39.0761 24.2232 38.5522 24.2232H38.1593V24.1906H28.369C27.5177 24.1906 26.6664 24.1906 25.8151 24.1906H25.2257V25.493C25.2257 26.8278 25.2257 28.1302 25.2257 29.4651C25.2257 29.8232 25.1602 30.1813 25.062 30.4744C24.7018 31.4837 24.0797 32.2651 23.1628 32.8185ZM17.1053 32.1348C16.3522 32.1348 15.7628 31.972 15.239 31.5813C14.4204 30.9953 14.0274 30.1488 13.9947 29.0744C13.9947 27.3488 13.9947 25.6232 13.9947 23.9302V21.6511C13.9947 21.6185 13.9947 21.5534 13.9947 21.5209C13.9947 21.4232 13.962 21.3255 13.7328 21.2604C12.8159 20.9674 12.1283 20.3488 11.6372 19.4372C11.6044 19.372 11.5717 19.3069 11.5717 19.2418C11.539 19.1441 11.539 19.0465 11.5717 19.0139L11.6372 18.6883L11.9646 18.6558H18.5788V19.4372C18.5788 19.5999 18.5788 19.7953 18.5788 19.9581C18.5788 20.3488 18.5788 20.7069 18.6115 21.0651C18.677 21.9767 18.939 22.9209 19.3646 23.8325C19.7248 24.6465 20.2159 25.3953 20.8053 25.9813C21.6239 26.8278 22.4752 27.3488 23.4575 27.6418C23.8832 27.772 23.8832 28.0976 23.8832 28.1953C23.8832 28.3581 23.8832 28.5209 23.8832 28.6837C23.8832 29.0418 23.9159 29.3999 23.8177 29.7906C23.6213 30.7348 23.0319 31.4185 22.1478 31.8418C21.7876 32.0046 21.3947 32.1023 20.8708 32.1023H19.4956C18.7097 32.1023 17.9239 32.1023 17.1053 32.1348ZM12.5867 19.4372C12.9469 19.9581 13.4053 20.3162 13.9947 20.479C14.6823 20.7069 14.8133 21.1953 14.8133 21.4883C14.8133 21.5534 14.8133 21.6185 14.8133 21.6511V23.8976C14.8133 25.6232 14.8133 27.3162 14.8133 29.0418C14.8133 29.8232 15.108 30.4418 15.6974 30.8976C16.0575 31.1581 16.5159 31.2883 17.1053 31.2883C17.8912 31.2883 18.7097 31.2883 19.4956 31.2883H20.8708C21.2637 31.2883 21.5584 31.2232 21.8204 31.1255C22.4752 30.8325 22.9009 30.3441 23.0319 29.6278C23.0974 29.3348 23.0974 29.0418 23.0646 28.7162C23.0646 28.6185 23.0646 28.4883 23.0646 28.3906C22.0168 28.0651 21.0673 27.4465 20.2159 26.5674C19.5611 25.9162 19.0372 25.1023 18.6115 24.1906C18.1531 23.1813 17.8912 22.172 17.7929 21.1302C17.7602 20.7395 17.7602 20.3162 17.7602 19.9581C17.7602 19.7953 17.7602 19.6325 17.7602 19.4697H12.5867V19.4372ZM21.7549 25.7209C21.4602 25.7209 21.1655 25.5906 20.9363 25.3627C20.7071 25.1348 20.6089 24.8418 20.6089 24.5488C20.6089 23.9302 21.1328 23.4092 21.7549 23.4092C22.0823 23.4092 22.4097 23.572 22.6062 23.8325C22.8027 24.0604 22.9009 24.3534 22.8682 24.6139C22.8682 25.1999 22.3443 25.7209 21.7549 25.7209ZM21.7221 24.1906C21.5584 24.1906 21.3947 24.3534 21.3947 24.5488C21.3947 24.6139 21.4274 24.7116 21.4929 24.7767C21.5584 24.8418 21.6567 24.9069 21.7549 24.9069C21.9186 24.9069 22.0823 24.7441 22.0823 24.5488V24.5162C22.0823 24.4511 22.0496 24.386 22.0168 24.3209C21.9513 24.2558 21.8204 24.1906 21.7221 24.1906ZM16.385 18.1023H15.0097L14.9443 17.7441C14.9443 17.7116 14.9115 17.6465 14.9115 17.5488C14.9115 17.093 14.9115 16.6697 14.9115 16.2139C14.9115 16.0511 14.9443 15.8883 15.0097 15.7906C15.1407 15.4651 15.5336 15.2697 15.8611 15.3348C16.254 15.3999 16.5159 15.7255 16.5159 16.1162C16.5159 16.5069 16.5159 16.8976 16.5159 17.2558V17.5813C16.5159 17.679 16.4832 17.7441 16.4832 17.7767L16.385 18.1023ZM22.9991 18.0697H21.4274V17.2232C21.4274 16.8325 21.4274 16.4744 21.4274 16.1162C21.4274 15.693 21.7549 15.3674 22.1805 15.3348C22.377 15.3348 22.6062 15.3999 22.7699 15.5302C22.9336 15.6604 22.9991 15.8558 23.0319 16.0511C23.0319 16.4418 23.0319 16.8325 23.0319 17.2232L22.9991 18.0697Z" fill="black"/>
<path d="M41.139 24.7442C40.9097 24.5163 40.6805 24.2559 40.4841 24.028C40.3859 23.8977 40.2549 23.8326 40.0912 23.8326C39.731 23.8326 39.3708 23.8326 39.0434 23.8326V23.8H29.1876C29.0894 23.8 29.0239 23.8 28.9257 23.8C27.6487 23.8 26.3717 23.8 25.0947 23.8C25.0292 23.8 24.9637 23.8 24.8982 23.8C24.7673 23.8 24.7345 23.8652 24.7345 23.9628C24.7345 24.028 24.7345 24.0931 24.7345 24.1582C24.7345 25.9163 24.7345 27.6745 24.7345 29.4326C24.7345 29.7256 24.7018 30.0512 24.6036 30.3117C24.3089 31.2233 23.7522 31.9396 22.9009 32.4605C22.7699 32.5582 22.7044 32.6233 22.7044 32.7861C22.7044 33.5024 22.7044 34.2187 22.7372 34.9349C22.7372 36.5628 22.7699 38.1907 22.7699 39.7861C22.7699 40.0466 22.7699 40.0791 23.0319 40.0791C23.8832 40.0791 24.7018 40.0791 25.5204 40.0791C25.7823 40.0791 25.7823 40.0791 25.8478 39.7861C25.9788 39.2 26.1097 38.5814 26.2407 37.9954C26.3717 37.3768 26.5354 36.7256 26.6664 36.107C26.7319 35.8466 26.7319 35.8466 26.9938 35.8466C30.3991 35.8466 33.8044 35.8466 37.177 35.8466C37.2425 35.8466 37.3407 35.8466 37.4062 35.8791C37.7336 37.3117 38.0283 38.7117 38.3885 40.1117C39.4036 40.1117 40.3859 40.1117 41.4009 40.1117C41.4336 39.6233 41.4664 39.2 41.4991 38.7442C41.5319 38.028 41.5974 37.3117 41.6301 36.5954C41.6956 35.4233 41.7611 34.2187 41.8266 33.0466C41.892 32.0047 41.9248 30.9628 41.9903 29.921C42.023 29.107 42.0558 28.2931 42.1213 27.4791C42.2522 26.4047 41.8593 25.4931 41.139 24.7442Z" fill="white"/>
<path d="M30.1045 28.2277C31.5779 28.2277 32.7894 27.0231 32.7894 25.5254C32.7894 24.0277 31.6106 22.7905 30.1045 22.7905C28.631 22.7905 27.4195 23.9952 27.4195 25.4929C27.4195 26.9905 28.631 28.2277 30.1045 28.2277Z" fill="black"/>
<path d="M37.7991 33.5999C39.0434 33.5999 40.0584 32.5906 40.0584 31.3208C40.0584 30.0511 39.0434 29.0417 37.7991 29.0417C36.5549 29.0417 35.5398 30.0511 35.5398 31.3208C35.5398 32.5906 36.5549 33.5999 37.7991 33.5999Z" fill="black"/>
<path d="M30.1699 36.7256C31.4142 36.693 32.6584 36.8558 33.8699 37.0186C33.9027 37.0186 33.9354 37.0186 33.9682 37.0186C34.0009 36.8233 34.0009 36.6605 34.0009 36.4651C34.0009 34.4465 32.3965 32.8186 30.3991 32.8186C28.4018 32.8186 26.7974 34.4465 26.7974 36.4651C26.7974 36.8233 26.8629 37.1488 26.9283 37.4744C27.7797 36.6605 29.0894 36.7581 30.1699 36.7256Z" fill="black"/>
<path d="M31.8726 22.6278C31.7743 22.6278 31.7089 22.6278 31.6434 22.5952C31.3159 22.9534 31.1522 23.3441 31.1522 23.7999C31.1522 25.0045 32.4947 25.9813 34.1646 25.9813C35.8345 25.9813 37.177 25.0045 37.177 23.7999C37.177 23.3766 37.0133 22.9534 36.7186 22.6278H31.8726Z" fill="black"/>
<path d="M21.0018 24.5488C20.969 24.0604 21.3947 23.7349 21.7876 23.7349C22.246 23.7349 22.6062 24.1256 22.6062 24.5814C22.6062 25.0372 22.2133 25.3953 21.7876 25.3953C21.3292 25.3628 21.0018 25.0046 21.0018 24.5488Z" fill="white"/>
<path d="M16.1558 17.3209C15.7956 17.3209 15.4354 17.3209 15.0752 17.3209C15.0752 17.2558 15.0425 17.1907 15.0425 17.1256C15.0425 16.5721 15.0425 16.7349 15.0425 16.1488C15.0425 16.0186 15.0752 15.8884 15.108 15.7907C15.2062 15.5953 15.5009 15.4651 15.6973 15.4977C15.992 15.5628 16.2212 15.7581 16.2212 16.0512C16.2212 16.6698 16.2212 16.5721 16.2212 17.2232C16.2212 17.2232 16.1885 17.2558 16.1558 17.3209Z" fill="white"/>
<path d="M22.7699 17.3209C22.4097 17.3209 22.0496 17.3209 21.6894 17.3209C21.6894 17.2558 21.6566 17.1907 21.6566 17.1256C21.6566 16.5721 21.6566 16.7349 21.6566 16.1488C21.6566 16.0186 21.6894 15.8884 21.7221 15.7907C21.8204 15.5953 22.1151 15.4651 22.3115 15.4977C22.6062 15.5302 22.8027 15.7581 22.8027 16.0186C22.8027 16.6372 22.8027 16.5395 22.8027 17.1907C22.8027 17.2232 22.7699 17.2558 22.7699 17.3209Z" fill="white"/>
</g>
<defs>
<clipPath id="clip0_1030_932">
<rect width="37" height="28" fill="white" transform="translate(10 14)"/>
</clipPath>
</defs>
</svg>
