<svg width="56" height="56" viewBox="0 0 56 56" fill="none" xmlns="http://www.w3.org/2000/svg">
<rect width="56" height="56" rx="8" fill="#BE87F4" fill-opacity="0.2"/>
<g clip-path="url(#clip0_1036_916)">
<path d="M34.8987 20.9905C35.4419 20.9905 35.9526 21.2016 36.3368 21.5843L38.5181 23.7568C38.8125 24.05 39.2187 24.2186 39.6323 24.2171C39.9959 24.2171 40.3447 24.0881 40.6141 23.8536C40.9452 23.5648 41.1366 23.1499 41.1366 22.7116C41.1366 22.307 40.9791 21.9273 40.6921 21.6429L38.5431 19.5026C37.5702 18.5336 36.275 17.9985 34.8987 17.9985C33.5225 17.9985 32.2287 18.5321 31.2558 19.5011L16.746 33.9525C16.0954 34.6005 15.2314 34.9567 14.3144 34.9567C13.4607 34.9567 12.6556 34.6386 12.0477 34.061C11.3809 33.4292 11.0144 32.576 11.0144 31.6612C11.0144 30.7465 11.3603 29.9446 11.9888 29.3186L12.6394 28.6707L13.8743 29.9006V25.1993H9.14955L10.489 26.5333L9.90315 27.1168C7.39506 29.6147 7.35973 33.6578 9.82514 36.1294C11.0291 37.3359 12.632 38 14.3409 38C16.0498 38 17.6394 37.3403 18.8405 36.1441L33.4607 21.5843C33.8449 21.2016 34.3556 20.9905 34.8987 20.9905Z" fill="url(#paint0_linear_1036_916)"/>
<path d="M46.0954 27.1168L45.015 26.0408L46.3559 24.7053H41.6341V29.4081L42.869 28.1782L44.0141 29.3187C44.6426 29.9446 44.9885 30.7758 44.9885 31.6613C44.9885 32.5467 44.622 33.4292 43.9552 34.061C43.3473 34.6386 42.5422 34.9567 41.6885 34.9567C40.7701 34.9567 39.9061 34.6005 39.2555 33.9526L31.5031 26.2314L29.3556 28.3702L37.1595 36.1427C38.3606 37.3404 39.9591 37.9986 41.6591 37.9986C43.3591 37.9986 44.9708 37.3345 46.1748 36.128C48.6402 33.6564 48.6049 29.6133 46.0968 27.1153L46.0954 27.1168Z" fill="url(#paint1_linear_1036_916)"/>
<path d="M14.9267 24.3124C15.1961 24.5469 15.5449 24.676 15.9084 24.676C16.3235 24.676 16.7298 24.5074 17.0227 24.2142L19.6632 21.5843C20.0474 21.2016 20.5581 20.9905 21.1013 20.9905C21.6444 20.9905 22.1551 21.2016 22.5393 21.5843L24.4895 23.5266L26.637 21.3878L24.7457 19.5041C23.7713 18.5336 22.4775 18 21.1013 18C19.725 18 18.4313 18.5336 17.4569 19.5041L14.8487 22.1017C14.5617 22.3876 14.4042 22.7673 14.4042 23.1704C14.4042 23.6073 14.594 24.0236 14.9267 24.3124Z" fill="url(#paint2_linear_1036_916)"/>
</g>
<defs>
<linearGradient id="paint0_linear_1036_916" x1="8" y1="28.0007" x2="41.1351" y2="28.0007" gradientUnits="userSpaceOnUse">
<stop stop-color="#7A4AE7"/>
<stop offset="0.54" stop-color="#664BF2"/>
<stop offset="1" stop-color="#534DFF"/>
</linearGradient>
<linearGradient id="paint1_linear_1036_916" x1="29.3541" y1="31.3534" x2="48" y2="31.3534" gradientUnits="userSpaceOnUse">
<stop stop-color="#7A4AE7"/>
<stop offset="0.54" stop-color="#664BF2"/>
<stop offset="1" stop-color="#534DFF"/>
</linearGradient>
<linearGradient id="paint2_linear_1036_916" x1="14.4056" y1="21.338" x2="26.637" y2="21.338" gradientUnits="userSpaceOnUse">
<stop stop-color="#7A4AE7"/>
<stop offset="0.54" stop-color="#664BF2"/>
<stop offset="1" stop-color="#534DFF"/>
</linearGradient>
<clipPath id="clip0_1036_916">
<rect width="40" height="20" fill="white" transform="translate(8 18)"/>
</clipPath>
</defs>
</svg>
