<svg width="56" height="56" viewBox="0 0 56 56" fill="none" xmlns="http://www.w3.org/2000/svg">
<rect width="56" height="56" rx="8" fill="#9F9F9F" fill-opacity="0.2"/>
<g clip-path="url(#clip0_200_306)">
<path d="M28.5 12L28.3076 12.7147V33.8852L28.5 34.0933L38 28.285L28.5 12Z" fill="#343434"/>
<path d="M28.5 12L19 28.285L28.5 34.0933V23.8157V12Z" fill="#8C8C8C"/>
<path d="M28.5 35.957L28.3863 36.1017V43.629L28.5 44L38 30.1487L28.5 35.957Z" fill="#3C3C3B"/>
<path d="M28.5 44V35.957L19 30.1487L28.5 44Z" fill="#8C8C8C"/>
<path d="M28.5 34.0933L38 28.285L28.5 23.8157V34.0933Z" fill="#141414"/>
<path d="M19 28.285L28.5 34.0933V23.8157L19 28.285Z" fill="#393939"/>
</g>
<defs>
<clipPath id="clip0_200_306">
<rect width="19" height="32" fill="white" transform="translate(19 12)"/>
</clipPath>
</defs>
</svg>
