<svg width="56" height="56" viewBox="0 0 56 56" fill="none" xmlns="http://www.w3.org/2000/svg">
<rect width="56" height="56" rx="8" fill="#14FFFF" fill-opacity="0.2"/>
<g clip-path="url(#clip0_295_32)">
<path d="M37.9843 23.4269L37.9974 23.326C38.0046 23.2737 37.9972 23.2204 37.9758 23.1723C37.9545 23.1241 37.9201 23.083 37.8768 23.0537L35.1743 21.2117C35.1283 21.1799 35.074 21.1627 35.0183 21.1626H32.9793L30.4343 17.525L28.0046 10.1927C27.9856 10.1343 27.9482 10.0838 27.8982 10.0489C27.8482 10.014 27.7883 9.99671 27.7276 9.99957C27.667 10.0024 27.6089 10.0253 27.5623 10.0648C27.5157 10.1042 27.4832 10.158 27.4696 10.2179L25.7808 17.4612L24.6164 17.4148C24.5796 17.4128 24.5429 17.4191 24.5089 17.4334L24.4407 17.4254C24.3815 17.4189 24.3219 17.4321 24.2708 17.463C24.2197 17.494 24.1799 17.5409 24.1575 17.5967L22.6102 21.2954L19.3847 21.7974C19.3407 21.8046 19.299 21.8221 19.263 21.8487C19.227 21.8752 19.1977 21.91 19.1775 21.9501L18.0341 24.2676C18.0063 24.3224 17.9976 24.3851 18.0092 24.4456L19.8803 34.5548C19.8929 34.6218 19.9287 34.6821 19.9813 34.7248L23.9464 37.9055L26.0443 41.3253L28.3468 46.3202L28.5776 46.8249C28.5772 46.8284 28.5772 46.832 28.5776 46.8355C28.5986 46.8809 28.6312 46.9199 28.672 46.9483C28.7128 46.9768 28.7603 46.9938 28.8097 46.9975H28.8307C28.8765 46.9976 28.9216 46.9862 28.9621 46.9645C29.0026 46.9427 29.0371 46.9112 29.0627 46.8727L36.2364 36.025C36.2596 35.9894 36.2748 35.949 36.281 35.9068L37.9856 23.4229L37.9843 23.4269ZM30.7726 18.9991L32.586 21.6354L32.6148 21.6858L31.1279 20.5928L30.7726 18.9991ZM32.8836 22.5849L29.1139 23.4229L30.9588 21.213L32.8836 22.5849ZM27.7896 11.3043L29.9177 17.7255L30.5982 20.7721L28.4386 23.3579L27.0867 19.4175C27.0843 19.3833 27.0754 19.3499 27.0605 19.3192L26.2817 17.7468L27.7896 11.3043ZM25.8594 18.1306L26.0168 18.4533L25.5762 18.1027L25.8594 18.1306ZM24.5325 18.2222L26.1846 19.4839L23.0482 21.9036L24.5325 18.2222ZM26.6553 19.8783L27.9299 23.5969H23.9424L22.862 22.7589L26.6553 19.8783ZM19.6076 22.3339L22.4516 21.8904L22.1434 22.6606C22.1434 22.6606 22.1434 22.6686 22.1434 22.6726C22.1354 22.6934 22.1305 22.7154 22.129 22.7377C22.1284 22.7438 22.1284 22.7501 22.129 22.7563C22.129 22.7563 22.129 22.7629 22.129 22.7669C22.1294 22.7902 22.1325 22.8134 22.1382 22.8359C22.1382 22.8359 22.1382 22.8452 22.1382 22.8505C22.1448 22.8714 22.1536 22.8914 22.1644 22.9103C22.1683 22.9172 22.1727 22.9239 22.1775 22.9302C22.1921 22.9514 22.2093 22.9706 22.2287 22.9873L23.671 24.1082C23.7197 24.1457 23.779 24.1662 23.8402 24.1667H28.3114H28.3363H28.3599C28.3798 24.1664 28.3995 24.1642 28.4189 24.16L33.6114 23.0059C33.619 23.0034 33.6265 23.0003 33.6336 22.9966L33.6638 22.986C33.6855 22.9752 33.7062 22.9623 33.7254 22.9475C33.73 22.9441 33.7349 22.941 33.7399 22.9382C33.7613 22.9177 33.7794 22.894 33.7936 22.8678V22.8545C33.8037 22.8343 33.8112 22.8129 33.8159 22.7908C33.8159 22.7908 33.8159 22.7908 33.8159 22.7828C33.8159 22.7748 33.8159 22.7629 33.8159 22.7523C33.8179 22.7328 33.8179 22.7133 33.8159 22.6938C33.8139 22.6831 33.8113 22.6724 33.808 22.662C33.803 22.6431 33.796 22.6248 33.7871 22.6075C33.7876 22.6018 33.7876 22.596 33.7871 22.5902L33.277 21.7336H34.9357L37.1936 23.2729L34.3745 25.0405L25.0648 25.4974L18.6163 24.3539L19.6076 22.3339ZM26.6435 41.2629L27.8446 38.0569L30.4264 40.826L28.8779 46.0519L28.8529 46.0957L28.8398 46.0679L26.6435 41.2629ZM24.2362 37.3491L20.6106 34.3835L23.2816 31.8602L27.1995 37.2694L24.2362 37.3491ZM18.9913 24.9861L24.817 26.0193L27.1916 36.2999L18.9913 24.9861ZM30.9863 40.9017L34.92 37.0131L29.8862 44.6229L30.9863 40.9017ZM31.5816 39.5245L34.9999 31.7048L35.4851 35.6624L31.5816 39.5245ZM30.6559 40.2483L28.0243 37.4288L25.3926 26.0432L34.225 25.7311L34.8636 30.6184L30.6559 40.2483ZM18.7998 25.678L22.9499 31.402L20.3196 33.8868L18.7998 25.678ZM24.5967 37.9042L27.3333 37.8298L26.2843 40.6453L24.5967 37.9042ZM35.9073 34.5349L35.4615 30.9026L35.4261 30.6277L34.7495 25.4642L37.3719 23.8227L35.9073 34.5349Z" fill="white"/>
</g>
<defs>
<clipPath id="clip0_295_32">
<rect width="20" height="37" fill="white" transform="translate(18 10)"/>
</clipPath>
</defs>
</svg>
