<svg width="56" height="56" viewBox="0 0 56 56" fill="none" xmlns="http://www.w3.org/2000/svg">
<rect width="56" height="56" rx="8" fill="#1EBD53" fill-opacity="0.2"/>
<g clip-path="url(#clip0_200_262)">
<path d="M29.5415 19.9585C31.2042 20.028 32.7843 20.7377 33.9804 21.9522C34.5739 22.4839 35.1831 22.3842 35.9427 21.6199L37.5252 19.9585C38.1899 19.2856 38.1899 18.7622 37.5252 17.9564C36.3977 16.9113 35.0368 16.1825 33.5689 15.838L34.3602 12.3572C34.3775 12.2867 34.3682 12.212 34.3343 12.1486C34.3004 12.0851 34.2445 12.0378 34.1782 12.0166H32.754C32.6694 12.0161 32.5868 12.044 32.5185 12.0963C32.4501 12.1487 32.3995 12.2226 32.3741 12.3074L31.6857 15.4974C31.1239 15.4309 30.5305 15.3894 29.9133 15.3811L30.5622 12.3655C30.5718 12.3306 30.5747 12.294 30.5707 12.2579C30.5668 12.2218 30.556 12.1869 30.5391 12.1552C30.5222 12.1235 30.4994 12.0957 30.4721 12.0733C30.4448 12.0509 30.4136 12.0345 30.3802 12.0249H28.9005C28.8159 12.0244 28.7334 12.0523 28.665 12.1047C28.5967 12.157 28.5461 12.2309 28.5207 12.3157L27.8323 15.5057C23.2272 16.1038 20.2442 19.0613 20.2442 23.2399C20.2393 24.0597 20.3997 24.8714 20.7147 25.6216C21.0297 26.3718 21.4922 27.0436 22.072 27.5929C23.2156 28.64 24.5671 29.4063 26.0283 29.8359C26.4239 29.9771 26.8195 30.0934 27.1677 30.2097C28.9559 30.783 30.3327 31.4974 30.3327 32.9429C30.3327 34.3883 28.861 35.7258 26.7562 35.7258C24.6862 35.5802 22.7285 34.6847 21.2174 33.1921C21.0069 32.9711 20.7237 32.8433 20.4262 32.8349C19.9635 32.8882 19.5369 33.1225 19.2313 33.4912L17.5697 35.244C17.4179 35.3588 17.2926 35.5078 17.2029 35.6802C17.1133 35.8525 17.0616 36.0438 17.0518 36.2399C17.0419 36.4361 17.074 36.632 17.1459 36.8133C17.2177 36.9946 17.3274 37.1567 17.4669 37.2876C18.8327 38.7514 20.5812 39.7574 22.4913 40.1786L21.7713 43.5015C21.7468 43.6017 21.7603 43.708 21.8091 43.7979C21.8578 43.8878 21.9378 43.9543 22.0324 43.9834H23.2747C23.3767 43.9847 23.4765 43.9515 23.5592 43.8887C23.6418 43.8258 23.703 43.7367 23.7336 43.6345L24.3983 40.5358C24.9479 40.5925 25.4998 40.6202 26.052 40.6189H26.1865L25.5693 43.5015C25.5448 43.5995 25.5574 43.7037 25.6047 43.7921C25.6519 43.8804 25.7301 43.9461 25.8225 43.9751C25.8564 43.983 25.8915 43.983 25.9254 43.9751H27.0648C27.1675 43.9792 27.2685 43.9471 27.3517 43.8838C27.4349 43.8206 27.4955 43.7298 27.5237 43.6261L28.2122 40.461C30.0106 40.2429 31.7361 39.5888 33.2525 38.5503C34.259 37.7829 35.0764 36.7742 35.6365 35.6081C36.1967 34.442 36.4834 33.1523 36.4728 31.8463C36.4728 27.7923 33.023 26.5047 29.9846 25.3167L29.5098 25.1339L29.312 25.0592C27.8719 24.4943 26.321 23.8463 26.321 22.3593C26.321 20.8723 27.682 19.9585 29.5415 19.9585Z" fill="white"/>
</g>
<defs>
<clipPath id="clip0_200_262">
<rect width="21" height="32" fill="white" transform="translate(17 12)"/>
</clipPath>
</defs>
</svg>
