<svg width="56" height="56" viewBox="0 0 56 56" fill="none" xmlns="http://www.w3.org/2000/svg">
<rect width="56" height="56" rx="8" fill="#2C8B2F" fill-opacity="0.2"/>
<path d="M33.3983 42.9343H31.9873V44.0002H33.3983V42.9343Z" fill="#2D672D"/>
<path d="M31.9879 42.9343H30.5769V44.0002H31.9879V42.9343Z" fill="#2D672D"/>
<path d="M30.5762 42.9343H29.1652V44.0002H30.5762V42.9343Z" fill="#46A949"/>
<path d="M29.1649 42.9343H27.7539V44.0002H29.1649V42.9343Z" fill="#2D9B31"/>
<path d="M27.7545 42.9343H26.3435V44.0002H27.7545V42.9343Z" fill="#2C8B2F"/>
<path d="M26.3428 42.9343H24.9318V44.0002H26.3428V42.9343Z" fill="#2C8B2F"/>
<path d="M24.9324 42.9343H23.5214V44.0002H24.9324V42.9343Z" fill="#1E8021"/>
<path d="M23.5221 42.9343H22.111V44.0002H23.5221V42.9343Z" fill="#2C8B2F"/>
<path d="M22.1103 42.9343H20.6993V44.0002H22.1103V42.9343Z" fill="#1E8021"/>
<path d="M20.699 42.9343H19.2879V44.0002H20.699V42.9343Z" fill="#2C8B2F"/>
<path d="M19.2886 42.9343H17.8776V44.0002H19.2886V42.9343Z" fill="#20571F"/>
<path d="M44.6876 41.8657H43.2765V42.9316H44.6876V41.8657Z" fill="#2C8B2F"/>
<path d="M43.2759 41.8657H41.8648V42.9316H43.2759V41.8657Z" fill="#2C8B2F"/>
<path d="M41.8642 41.8657H40.4532V42.9316H41.8642V41.8657Z" fill="#2C8B2F"/>
<path d="M40.4536 41.8657H39.0428V42.9316H40.4536V41.8657Z" fill="#255125"/>
<path d="M39.0422 41.8657H37.6311V42.9316H39.0422V41.8657Z" fill="#143214"/>
<path d="M37.6321 41.8657H36.221V42.9316H37.6321V41.8657Z" fill="#174516"/>
<path d="M36.2204 41.8657H34.8093V42.9316H36.2204V41.8657Z" fill="#174516"/>
<path d="M34.81 41.8657H33.399V42.9316H34.81V41.8657Z" fill="#174516"/>
<path d="M33.3983 41.8657H31.9873V42.9316H33.3983V41.8657Z" fill="#174516"/>
<path d="M31.9879 41.8657H30.5769V42.9316H31.9879V41.8657Z" fill="#174516"/>
<path d="M30.5762 41.8657H29.1652V42.9316H30.5762V41.8657Z" fill="#2C8B2F"/>
<path d="M29.1649 41.8657H27.7539V42.9316H29.1649V41.8657Z" fill="#1E8021"/>
<path d="M27.7545 41.8657H26.3435V42.9316H27.7545V41.8657Z" fill="#2C8B2F"/>
<path d="M26.3428 41.8657H24.9318V42.9316H26.3428V41.8657Z" fill="#1E8021"/>
<path d="M24.9324 41.8657H23.5214V42.9316H24.9324V41.8657Z" fill="#2C8B2F"/>
<path d="M23.5221 41.8657H22.111V42.9316H23.5221V41.8657Z" fill="#1E8021"/>
<path d="M22.1103 41.8657H20.6993V42.9316H22.1103V41.8657Z" fill="#2C8B2F"/>
<path d="M20.699 41.8657H19.2879V42.9316H20.699V41.8657Z" fill="#2C8B2F"/>
<path d="M19.2886 41.8657H17.8776V42.9316H19.2886V41.8657Z" fill="#20571F"/>
<path d="M17.8769 41.8657H16.4659V42.9316H17.8769V41.8657Z" fill="#20571F"/>
<path d="M16.4665 41.8657H15.0555V42.9316H16.4665V41.8657Z" fill="#20571F"/>
<path d="M44.6876 40.8003H43.2765V41.8661H44.6876V40.8003Z" fill="#2C8B2F"/>
<path d="M43.2759 40.8003H41.8648V41.8661H43.2759V40.8003Z" fill="#1E8021"/>
<path d="M41.8642 40.8003H40.4532V41.8661H41.8642V40.8003Z" fill="#2C8B2F"/>
<path d="M40.4536 40.8003H39.0428V41.8661H40.4536V40.8003Z" fill="#255125"/>
<path d="M39.0422 40.8003H37.6311V41.8661H39.0422V40.8003Z" fill="#143214"/>
<path d="M37.6321 40.8003H36.221V41.8661H37.6321V40.8003Z" fill="#174516"/>
<path d="M36.2204 40.8003H34.8093V41.8661H36.2204V40.8003Z" fill="#174516"/>
<path d="M34.81 40.8003H33.399V41.8661H34.81V40.8003Z" fill="#174516"/>
<path d="M33.3983 40.8003H31.9873V41.8661H33.3983V40.8003Z" fill="#174516"/>
<path d="M31.9879 40.8003H30.5769V41.8661H31.9879V40.8003Z" fill="#174516"/>
<path d="M30.5762 40.8003H29.1652V41.8661H30.5762V40.8003Z" fill="#2C8B2F"/>
<path d="M29.1649 40.8003H27.7539V41.8661H29.1649V40.8003Z" fill="#2C8B2F"/>
<path d="M27.7545 40.8003H26.3435V41.8661H27.7545V40.8003Z" fill="#2C8B2F"/>
<path d="M26.3428 40.8003H24.9318V41.8661H26.3428V40.8003Z" fill="#2C8B2F"/>
<path d="M24.9324 40.8003H23.5214V41.8661H24.9324V40.8003Z" fill="#2C8B2F"/>
<path d="M23.5221 40.8003H22.111V41.8661H23.5221V40.8003Z" fill="#2C8B2F"/>
<path d="M22.1103 40.8003H20.6993V41.8661H22.1103V40.8003Z" fill="#1E8021"/>
<path d="M20.699 40.8003H19.2879V41.8661H20.699V40.8003Z" fill="#2C8B2F"/>
<path d="M19.2886 40.8003H17.8776V41.8661H19.2886V40.8003Z" fill="#174516"/>
<path d="M17.8769 40.8003H16.4659V41.8661H17.8769V40.8003Z" fill="#20571F"/>
<path d="M16.4665 40.8003H15.0555V41.8661H16.4665V40.8003Z" fill="#20571F"/>
<path d="M15.0549 40.8003H13.6438V41.8661H15.0549V40.8003Z" fill="#174516"/>
<path d="M13.6445 40.8003H12.2334V41.8661H13.6445V40.8003Z" fill="#20571F"/>
<path d="M44.6876 39.7344H43.2765V40.8002H44.6876V39.7344Z" fill="#2C8B2F"/>
<path d="M43.2759 39.7344H41.8648V40.8002H43.2759V39.7344Z" fill="#2C8B2F"/>
<path d="M41.8642 39.7344H40.4532V40.8002H41.8642V39.7344Z" fill="#2C8B2F"/>
<path d="M40.4536 39.7344H39.0428V40.8002H40.4536V39.7344Z" fill="#255125"/>
<path d="M39.0422 39.7344H37.6311V40.8002H39.0422V39.7344Z" fill="#143214"/>
<path d="M37.6321 39.7344H36.221V40.8002H37.6321V39.7344Z" fill="#174516"/>
<path d="M36.2204 39.7344H34.8093V40.8002H36.2204V39.7344Z" fill="#0D350C"/>
<path d="M34.81 39.7344H33.399V40.8002H34.81V39.7344Z" fill="#174516"/>
<path d="M33.3983 39.7344H31.9873V40.8002H33.3983V39.7344Z" fill="#174516"/>
<path d="M31.9879 39.7344H30.5769V40.8002H31.9879V39.7344Z" fill="#174516"/>
<path d="M30.5762 39.7344H29.1652V40.8002H30.5762V39.7344Z" fill="#2C8B2F"/>
<path d="M29.1649 39.7344H27.7539V40.8002H29.1649V39.7344Z" fill="#1E8021"/>
<path d="M27.7545 39.7344H26.3435V40.8002H27.7545V39.7344Z" fill="#2C8B2F"/>
<path d="M26.3428 39.7344H24.9318V40.8002H26.3428V39.7344Z" fill="#1E8021"/>
<path d="M24.9324 39.7344H23.5214V40.8002H24.9324V39.7344Z" fill="#2C8B2F"/>
<path d="M23.5221 39.7344H22.111V40.8002H23.5221V39.7344Z" fill="#2C8B2F"/>
<path d="M22.1103 39.7344H20.6993V40.8002H22.1103V39.7344Z" fill="#2C8B2F"/>
<path d="M20.699 39.7344H19.2879V40.8002H20.699V39.7344Z" fill="#1E8021"/>
<path d="M19.2886 39.7344H17.8776V40.8002H19.2886V39.7344Z" fill="#20571F"/>
<path d="M17.8769 39.7344H16.4659V40.8002H17.8769V39.7344Z" fill="#20571F"/>
<path d="M16.4665 39.7344H15.0555V40.8002H16.4665V39.7344Z" fill="#20571F"/>
<path d="M15.0549 39.7344H13.6438V40.8002H15.0549V39.7344Z" fill="#20571F"/>
<path d="M13.6445 39.7344H12.2334V40.8002H13.6445V39.7344Z" fill="#20571F"/>
<path d="M44.6876 38.666H43.2765V39.7318H44.6876V38.666Z" fill="#2C8B2F"/>
<path d="M43.2759 38.666H41.8648V39.7318H43.2759V38.666Z" fill="#2C8B2F"/>
<path d="M41.8642 38.666H40.4532V39.7318H41.8642V38.666Z" fill="#1E8021"/>
<path d="M40.4536 38.666H39.0428V39.7318H40.4536V38.666Z" fill="#255125"/>
<path d="M39.0422 38.666H37.6311V39.7318H39.0422V38.666Z" fill="#143214"/>
<path d="M37.6321 38.666H36.221V39.7318H37.6321V38.666Z" fill="#174516"/>
<path d="M36.2204 38.666H34.8093V39.7318H36.2204V38.666Z" fill="#174516"/>
<path d="M34.81 38.666H33.399V39.7318H34.81V38.666Z" fill="#0D350C"/>
<path d="M33.3983 38.666H31.9873V39.7318H33.3983V38.666Z" fill="#174516"/>
<path d="M31.9879 38.666H30.5769V39.7318H31.9879V38.666Z" fill="#174516"/>
<path d="M30.5762 38.666H29.1652V39.7318H30.5762V38.666Z" fill="#2C8B2F"/>
<path d="M29.1649 38.666H27.7539V39.7318H29.1649V38.666Z" fill="#2C8B2F"/>
<path d="M27.7545 38.666H26.3435V39.7318H27.7545V38.666Z" fill="#2C8B2F"/>
<path d="M26.3428 38.666H24.9318V39.7318H26.3428V38.666Z" fill="#2C8B2F"/>
<path d="M24.9324 38.666H23.5214V39.7318H24.9324V38.666Z" fill="#1E8021"/>
<path d="M23.5221 38.666H22.111V39.7318H23.5221V38.666Z" fill="#2C8B2F"/>
<path d="M22.1103 38.666H20.6993V39.7318H22.1103V38.666Z" fill="#2C8B2F"/>
<path d="M20.699 38.666H19.2879V39.7318H20.699V38.666Z" fill="#2C8B2F"/>
<path d="M19.2886 38.666H17.8776V39.7318H19.2886V38.666Z" fill="#20571F"/>
<path d="M17.8769 38.666H16.4659V39.7318H17.8769V38.666Z" fill="#20571F"/>
<path d="M16.4665 38.666H15.0555V39.7318H16.4665V38.666Z" fill="#174516"/>
<path d="M15.0549 38.666H13.6438V39.7318H15.0549V38.666Z" fill="#20571F"/>
<path d="M13.6445 38.666H12.2334V39.7318H13.6445V38.666Z" fill="#20571F"/>
<path d="M44.6876 37.6001H43.2765V38.666H44.6876V37.6001Z" fill="#2C8B2F"/>
<path d="M43.2759 37.6001H41.8648V38.666H43.2759V37.6001Z" fill="#2C8B2F"/>
<path d="M41.8642 37.6001H40.4532V38.666H41.8642V37.6001Z" fill="#2C8B2F"/>
<path d="M40.4536 37.6001H39.0428V38.666H40.4536V37.6001Z" fill="#255125"/>
<path d="M39.0422 37.6001H37.6311V38.666H39.0422V37.6001Z" fill="#143214"/>
<path d="M37.6321 37.6001H36.221V38.666H37.6321V37.6001Z" fill="#174516"/>
<path d="M36.2204 37.6001H34.8093V38.666H36.2204V37.6001Z" fill="#174516"/>
<path d="M34.81 37.6001H33.399V38.666H34.81V37.6001Z" fill="#174516"/>
<path d="M33.3983 37.6001H31.9873V38.666H33.3983V37.6001Z" fill="#174516"/>
<path d="M31.9879 37.6001H30.5769V38.666H31.9879V37.6001Z" fill="#174516"/>
<path d="M30.5762 37.6001H29.1652V38.666H30.5762V37.6001Z" fill="#2C8B2F"/>
<path d="M29.1649 37.6001H27.7539V38.666H29.1649V37.6001Z" fill="#2C8B2F"/>
<path d="M27.7545 37.6001H26.3435V38.666H27.7545V37.6001Z" fill="#1E8021"/>
<path d="M26.3428 37.6001H24.9318V38.666H26.3428V37.6001Z" fill="#2C8B2F"/>
<path d="M24.9324 37.6001H23.5214V38.666H24.9324V37.6001Z" fill="#2C8B2F"/>
<path d="M23.5221 37.6001H22.111V38.666H23.5221V37.6001Z" fill="#2C8B2F"/>
<path d="M22.1103 37.6001H20.6993V38.666H22.1103V37.6001Z" fill="#1E8021"/>
<path d="M20.699 37.6001H19.2879V38.666H20.699V37.6001Z" fill="#2C8B2F"/>
<path d="M19.2886 37.6001H17.8776V38.666H19.2886V37.6001Z" fill="#174516"/>
<path d="M17.8769 37.6001H16.4659V38.666H17.8769V37.6001Z" fill="#20571F"/>
<path d="M16.4665 37.6001H15.0555V38.666H16.4665V37.6001Z" fill="#20571F"/>
<path d="M15.0549 37.6001H13.6438V38.666H15.0549V37.6001Z" fill="#174516"/>
<path d="M13.6445 37.6001H12.2334V38.666H13.6445V37.6001Z" fill="#20571F"/>
<path d="M44.6876 36.5344H43.2765V37.6002H44.6876V36.5344Z" fill="#2C8B2F"/>
<path d="M43.2759 36.5344H41.8648V37.6002H43.2759V36.5344Z" fill="#1E8021"/>
<path d="M41.8642 36.5344H40.4532V37.6002H41.8642V36.5344Z" fill="#2C8B2F"/>
<path d="M40.4536 36.5344H39.0428V37.6002H40.4536V36.5344Z" fill="#255125"/>
<path d="M39.0422 36.5344H37.6311V37.6002H39.0422V36.5344Z" fill="#143214"/>
<path d="M37.6321 36.5344H36.221V37.6002H37.6321V36.5344Z" fill="#0D350C"/>
<path d="M36.2204 36.5344H34.8093V37.6002H36.2204V36.5344Z" fill="#174516"/>
<path d="M34.81 36.5344H33.399V37.6002H34.81V36.5344Z" fill="#174516"/>
<path d="M33.3983 36.5344H31.9873V37.6002H33.3983V36.5344Z" fill="#174516"/>
<path d="M31.9879 36.5344H30.5769V37.6002H31.9879V36.5344Z" fill="#174516"/>
<path d="M30.5762 36.5344H29.1652V37.6002H30.5762V36.5344Z" fill="#1E8021"/>
<path d="M29.1649 36.5344H27.7539V37.6002H29.1649V36.5344Z" fill="#2C8B2F"/>
<path d="M27.7545 36.5344H26.3435V37.6002H27.7545V36.5344Z" fill="#2C8B2F"/>
<path d="M26.3428 36.5344H24.9318V37.6002H26.3428V36.5344Z" fill="#1E8021"/>
<path d="M24.9324 36.5344H23.5214V37.6002H24.9324V36.5344Z" fill="#2C8B2F"/>
<path d="M23.5221 36.5344H22.111V37.6002H23.5221V36.5344Z" fill="#2C8B2F"/>
<path d="M22.1103 36.5344H20.6993V37.6002H22.1103V36.5344Z" fill="#2C8B2F"/>
<path d="M20.699 36.5344H19.2879V37.6002H20.699V36.5344Z" fill="#1E8021"/>
<path d="M19.2886 36.5344H17.8776V37.6002H19.2886V36.5344Z" fill="#20571F"/>
<path d="M17.8769 36.5344H16.4659V37.6002H17.8769V36.5344Z" fill="#20571F"/>
<path d="M16.4665 36.5344H15.0555V37.6002H16.4665V36.5344Z" fill="#20571F"/>
<path d="M15.0549 36.5344H13.6438V37.6002H15.0549V36.5344Z" fill="#20571F"/>
<path d="M13.6445 36.5344H12.2334V37.6002H13.6445V36.5344Z" fill="#20571F"/>
<path d="M44.6876 35.4658H43.2765V36.5317H44.6876V35.4658Z" fill="#2C8B2F"/>
<path d="M43.2759 35.4658H41.8648V36.5317H43.2759V35.4658Z" fill="#2C8B2F"/>
<path d="M41.8642 35.4658H40.4532V36.5317H41.8642V35.4658Z" fill="#2C8B2F"/>
<path d="M40.4536 35.4658H39.0428V36.5317H40.4536V35.4658Z" fill="#255125"/>
<path d="M39.0422 35.4658H37.6311V36.5317H39.0422V35.4658Z" fill="#143214"/>
<path d="M37.6321 35.4658H36.221V36.5317H37.6321V35.4658Z" fill="#174516"/>
<path d="M36.2204 35.4658H34.8093V36.5317H36.2204V35.4658Z" fill="#0D350C"/>
<path d="M34.81 35.4658H33.399V36.5317H34.81V35.4658Z" fill="#174516"/>
<path d="M33.3983 35.4658H31.9873V36.5317H33.3983V35.4658Z" fill="#174516"/>
<path d="M31.9879 35.4658H30.5769V36.5317H31.9879V35.4658Z" fill="#174516"/>
<path d="M30.5762 35.4658H29.1652V36.5317H30.5762V35.4658Z" fill="#2C8B2F"/>
<path d="M29.1649 35.4658H27.7539V36.5317H29.1649V35.4658Z" fill="#2C8B2F"/>
<path d="M27.7545 35.4658H26.3435V36.5317H27.7545V35.4658Z" fill="#2C8B2F"/>
<path d="M26.3428 35.4658H24.9318V36.5317H26.3428V35.4658Z" fill="#2C8B2F"/>
<path d="M24.9324 35.4658H23.5214V36.5317H24.9324V35.4658Z" fill="#2C8B2F"/>
<path d="M23.5221 35.4658H22.111V36.5317H23.5221V35.4658Z" fill="#1E8021"/>
<path d="M22.1103 35.4658H20.6993V36.5317H22.1103V35.4658Z" fill="#2C8B2F"/>
<path d="M20.699 35.4658H19.2879V36.5317H20.699V35.4658Z" fill="#2C8B2F"/>
<path d="M19.2886 35.4658H17.8776V36.5317H19.2886V35.4658Z" fill="#20571F"/>
<path d="M17.8769 35.4658H16.4659V36.5317H17.8769V35.4658Z" fill="#20571F"/>
<path d="M16.4665 35.4658H15.0555V36.5317H16.4665V35.4658Z" fill="#174516"/>
<path d="M15.0549 35.4658H13.6438V36.5317H15.0549V35.4658Z" fill="#20571F"/>
<path d="M13.6445 35.4658H12.2334V36.5317H13.6445V35.4658Z" fill="#20571F"/>
<path d="M44.6876 34.4004H43.2765V35.4662H44.6876V34.4004Z" fill="#1E8021"/>
<path d="M43.2759 34.4004H41.8648V35.4662H43.2759V34.4004Z" fill="#2C8B2F"/>
<path d="M41.8642 34.4004H40.4532V35.4662H41.8642V34.4004Z" fill="#2C8B2F"/>
<path d="M40.4536 34.4004H39.0428V35.4662H40.4536V34.4004Z" fill="#255125"/>
<path d="M39.0422 34.4004H37.6311V35.4662H39.0422V34.4004Z" fill="#143214"/>
<path d="M37.6321 34.4004H36.221V35.4662H37.6321V34.4004Z" fill="#174516"/>
<path d="M36.2204 34.4004H34.8093V35.4662H36.2204V34.4004Z" fill="#174516"/>
<path d="M34.81 34.4004H33.399V35.4662H34.81V34.4004Z" fill="#174516"/>
<path d="M33.3983 34.4004H31.9873V35.4662H33.3983V34.4004Z" fill="#174516"/>
<path d="M31.9879 34.4004H30.5769V35.4662H31.9879V34.4004Z" fill="#174516"/>
<path d="M30.5762 34.4004H29.1652V35.4662H30.5762V34.4004Z" fill="#2C8B2F"/>
<path d="M29.1649 34.4004H27.7539V35.4662H29.1649V34.4004Z" fill="#2C8B2F"/>
<path d="M27.7545 34.4004H26.3435V35.4662H27.7545V34.4004Z" fill="#1E8021"/>
<path d="M26.3428 34.4004H24.9318V35.4662H26.3428V34.4004Z" fill="#2C8B2F"/>
<path d="M24.9324 34.4004H23.5214V35.4662H24.9324V34.4004Z" fill="#2C8B2F"/>
<path d="M23.5221 34.4004H22.111V35.4662H23.5221V34.4004Z" fill="#2C8B2F"/>
<path d="M22.1103 34.4004H20.6993V35.4662H22.1103V34.4004Z" fill="#1E8021"/>
<path d="M20.699 34.4004H19.2879V35.4662H20.699V34.4004Z" fill="#2C8B2F"/>
<path d="M19.2886 34.4004H17.8776V35.4662H19.2886V34.4004Z" fill="#20571F"/>
<path d="M17.8769 34.4004H16.4659V35.4662H17.8769V34.4004Z" fill="#20571F"/>
<path d="M16.4665 34.4004H15.0555V35.4662H16.4665V34.4004Z" fill="#20571F"/>
<path d="M15.0549 34.4004H13.6438V35.4662H15.0549V34.4004Z" fill="#20571F"/>
<path d="M13.6445 34.4004H12.2334V35.4662H13.6445V34.4004Z" fill="#20571F"/>
<path d="M44.6876 33.3342H43.2765V34.4H44.6876V33.3342Z" fill="#2C8B2F"/>
<path d="M43.2759 33.3342H41.8648V34.4H43.2759V33.3342Z" fill="#2C8B2F"/>
<path d="M41.8642 33.3342H40.4532V34.4H41.8642V33.3342Z" fill="#2C8B2F"/>
<path d="M40.4536 33.3342H39.0428V34.4H40.4536V33.3342Z" fill="#255125"/>
<path d="M39.0422 33.3342H37.6311V34.4H39.0422V33.3342Z" fill="#143214"/>
<path d="M37.6321 33.3342H36.221V34.4H37.6321V33.3342Z" fill="#174516"/>
<path d="M36.2204 33.3342H34.8093V34.4H36.2204V33.3342Z" fill="#174516"/>
<path d="M34.81 33.3342H33.399V34.4H34.81V33.3342Z" fill="#174516"/>
<path d="M33.3983 33.3342H31.9873V34.4H33.3983V33.3342Z" fill="#0D350C"/>
<path d="M31.9879 33.3342H30.5769V34.4H31.9879V33.3342Z" fill="#174516"/>
<path d="M30.5762 33.3342H29.1652V34.4H30.5762V33.3342Z" fill="#2C8B2F"/>
<path d="M29.1649 33.3342H27.7539V34.4H29.1649V33.3342Z" fill="#2C8B2F"/>
<path d="M27.7545 33.3342H26.3435V34.4H27.7545V33.3342Z" fill="#2C8B2F"/>
<path d="M26.3428 33.3342H24.9318V34.4H26.3428V33.3342Z" fill="#1E8021"/>
<path d="M24.9324 33.3342H23.5214V34.4H24.9324V33.3342Z" fill="#2C8B2F"/>
<path d="M23.5221 33.3342H22.111V34.4H23.5221V33.3342Z" fill="#2C8B2F"/>
<path d="M22.1103 33.3342H20.6993V34.4H22.1103V33.3342Z" fill="#2C8B2F"/>
<path d="M20.699 33.3342H19.2879V34.4H20.699V33.3342Z" fill="#2C8B2F"/>
<path d="M19.2886 33.3342H17.8776V34.4H19.2886V33.3342Z" fill="#20571F"/>
<path d="M17.8769 33.3342H16.4659V34.4H17.8769V33.3342Z" fill="#20571F"/>
<path d="M16.4665 33.3342H15.0555V34.4H16.4665V33.3342Z" fill="#20571F"/>
<path d="M15.0549 33.3342H13.6438V34.4H15.0549V33.3342Z" fill="#20571F"/>
<path d="M13.6445 33.3342H12.2334V34.4H13.6445V33.3342Z" fill="#174516"/>
<path d="M44.6876 32.2659H43.2765V33.3317H44.6876V32.2659Z" fill="#2C8B2F"/>
<path d="M43.2759 32.2659H41.8648V33.3317H43.2759V32.2659Z" fill="#2C8B2F"/>
<path d="M41.8642 32.2659H40.4532V33.3317H41.8642V32.2659Z" fill="#1E8021"/>
<path d="M40.4536 32.2659H39.0428V33.3317H40.4536V32.2659Z" fill="#255125"/>
<path d="M39.0422 32.2659H37.6311V33.3317H39.0422V32.2659Z" fill="#143214"/>
<path d="M37.6321 32.2659H36.221V33.3317H37.6321V32.2659Z" fill="#174516"/>
<path d="M36.2204 32.2659H34.8093V33.3317H36.2204V32.2659Z" fill="#174516"/>
<path d="M34.81 32.2659H33.399V33.3317H34.81V32.2659Z" fill="#174516"/>
<path d="M33.3983 32.2659H31.9873V33.3317H33.3983V32.2659Z" fill="#174516"/>
<path d="M31.9879 32.2659H30.5769V33.3317H31.9879V32.2659Z" fill="#0D350C"/>
<path d="M30.5762 32.2659H29.1652V33.3317H30.5762V32.2659Z" fill="#1E8021"/>
<path d="M29.1649 32.2659H27.7539V33.3317H29.1649V32.2659Z" fill="#2C8B2F"/>
<path d="M27.7545 32.2659H26.3435V33.3317H27.7545V32.2659Z" fill="#2C8B2F"/>
<path d="M26.3428 32.2659H24.9318V33.3317H26.3428V32.2659Z" fill="#2C8B2F"/>
<path d="M24.9324 32.2659H23.5214V33.3317H24.9324V32.2659Z" fill="#2C8B2F"/>
<path d="M23.5221 32.2659H22.111V33.3317H23.5221V32.2659Z" fill="#1E8021"/>
<path d="M22.1103 32.2659H20.6993V33.3317H22.1103V32.2659Z" fill="#2C8B2F"/>
<path d="M20.699 32.2659H19.2879V33.3317H20.699V32.2659Z" fill="#2C8B2F"/>
<path d="M19.2886 32.2659H17.8776V33.3317H19.2886V32.2659Z" fill="#20571F"/>
<path d="M17.8769 32.2659H16.4659V33.3317H17.8769V32.2659Z" fill="#20571F"/>
<path d="M16.4665 32.2659H15.0555V33.3317H16.4665V32.2659Z" fill="#20571F"/>
<path d="M15.0549 32.2659H13.6438V33.3317H15.0549V32.2659Z" fill="#20571F"/>
<path d="M13.6445 32.2659H12.2334V33.3317H13.6445V32.2659Z" fill="#20571F"/>
<path d="M44.6876 31.2002H43.2765V32.2661H44.6876V31.2002Z" fill="#2C8B2F"/>
<path d="M43.2759 31.2002H41.8648V32.2661H43.2759V31.2002Z" fill="#2C8B2F"/>
<path d="M41.8642 31.2002H40.4532V32.2661H41.8642V31.2002Z" fill="#2C8B2F"/>
<path d="M40.4536 31.2002H39.0428V32.2661H40.4536V31.2002Z" fill="#255125"/>
<path d="M39.0422 31.2002H37.6311V32.2661H39.0422V31.2002Z" fill="#143214"/>
<path d="M37.6321 31.2002H36.221V32.2661H37.6321V31.2002Z" fill="#0D350C"/>
<path d="M36.2204 31.2002H34.8093V32.2661H36.2204V31.2002Z" fill="#174516"/>
<path d="M34.81 31.2002H33.399V32.2661H34.81V31.2002Z" fill="#174516"/>
<path d="M33.3983 31.2002H31.9873V32.2661H33.3983V31.2002Z" fill="#174516"/>
<path d="M31.9879 31.2002H30.5769V32.2661H31.9879V31.2002Z" fill="#174516"/>
<path d="M30.5762 31.2002H29.1652V32.2661H30.5762V31.2002Z" fill="#2C8B2F"/>
<path d="M29.1649 31.2002H27.7539V32.2661H29.1649V31.2002Z" fill="#2C8B2F"/>
<path d="M27.7545 31.2002H26.3435V32.2661H27.7545V31.2002Z" fill="#1E8021"/>
<path d="M26.3428 31.2002H24.9318V32.2661H26.3428V31.2002Z" fill="#2C8B2F"/>
<path d="M24.9324 31.2002H23.5214V32.2661H24.9324V31.2002Z" fill="#2C8B2F"/>
<path d="M23.5221 31.2002H22.111V32.2661H23.5221V31.2002Z" fill="#2C8B2F"/>
<path d="M22.1103 31.2002H20.6993V32.2661H22.1103V31.2002Z" fill="#1E8021"/>
<path d="M20.699 31.2002H19.2879V32.2661H20.699V31.2002Z" fill="#2C8B2F"/>
<path d="M19.2886 31.2002H17.8776V32.2661H19.2886V31.2002Z" fill="#20571F"/>
<path d="M17.8769 31.2002H16.4659V32.2661H17.8769V31.2002Z" fill="#20571F"/>
<path d="M16.4665 31.2002H15.0555V32.2661H16.4665V31.2002Z" fill="#20571F"/>
<path d="M15.0549 31.2002H13.6438V32.2661H15.0549V31.2002Z" fill="#20571F"/>
<path d="M13.6445 31.2002H12.2334V32.2661H13.6445V31.2002Z" fill="#20571F"/>
<path d="M44.6876 30.1345H43.2765V31.2003H44.6876V30.1345Z" fill="#2C8B2F"/>
<path d="M43.2759 30.1345H41.8648V31.2003H43.2759V30.1345Z" fill="#1E8021"/>
<path d="M41.8642 30.1345H40.4532V31.2003H41.8642V30.1345Z" fill="#2C8B2F"/>
<path d="M40.4536 30.1345H39.0428V31.2003H40.4536V30.1345Z" fill="#255125"/>
<path d="M39.0422 30.1345H37.6311V31.2003H39.0422V30.1345Z" fill="#143214"/>
<path d="M37.6321 30.1345H36.221V31.2003H37.6321V30.1345Z" fill="#174516"/>
<path d="M36.2204 30.1345H34.8093V31.2003H36.2204V30.1345Z" fill="#174516"/>
<path d="M34.81 30.1345H33.399V31.2003H34.81V30.1345Z" fill="#0D350C"/>
<path d="M33.3983 30.1345H31.9873V31.2003H33.3983V30.1345Z" fill="#174516"/>
<path d="M31.9879 30.1345H30.5769V31.2003H31.9879V30.1345Z" fill="#174516"/>
<path d="M30.5762 30.1345H29.1652V31.2003H30.5762V30.1345Z" fill="#2C8B2F"/>
<path d="M29.1649 30.1345H27.7539V31.2003H29.1649V30.1345Z" fill="#2C8B2F"/>
<path d="M27.7545 30.1345H26.3435V31.2003H27.7545V30.1345Z" fill="#2C8B2F"/>
<path d="M26.3428 30.1345H24.9318V31.2003H26.3428V30.1345Z" fill="#2C8B2F"/>
<path d="M24.9324 30.1345H23.5214V31.2003H24.9324V30.1345Z" fill="#1E8021"/>
<path d="M23.5221 30.1345H22.111V31.2003H23.5221V30.1345Z" fill="#2C8B2F"/>
<path d="M22.1103 30.1345H20.6993V31.2003H22.1103V30.1345Z" fill="#2C8B2F"/>
<path d="M20.699 30.1345H19.2879V31.2003H20.699V30.1345Z" fill="#2C8B2F"/>
<path d="M19.2886 30.1345H17.8776V31.2003H19.2886V30.1345Z" fill="#20571F"/>
<path d="M17.8769 30.1345H16.4659V31.2003H17.8769V30.1345Z" fill="#174516"/>
<path d="M16.4665 30.1345H15.0555V31.2003H16.4665V30.1345Z" fill="#20571F"/>
<path d="M15.0549 30.1345H13.6438V31.2003H15.0549V30.1345Z" fill="#174516"/>
<path d="M13.6445 30.1345H12.2334V31.2003H13.6445V30.1345Z" fill="#20571F"/>
<path d="M44.6876 29.0662H43.2765V30.132H44.6876V29.0662Z" fill="#2C8B2F"/>
<path d="M43.2759 29.0662H41.8648V30.132H43.2759V29.0662Z" fill="#2C8B2F"/>
<path d="M41.8642 29.0662H40.4532V30.132H41.8642V29.0662Z" fill="#2C8B2F"/>
<path d="M40.4536 29.0662H39.0428V30.132H40.4536V29.0662Z" fill="#255125"/>
<path d="M39.0422 29.0662H37.6311V30.132H39.0422V29.0662Z" fill="#143214"/>
<path d="M37.6321 29.0662H36.221V30.132H37.6321V29.0662Z" fill="#174516"/>
<path d="M36.2204 29.0662H34.8093V30.132H36.2204V29.0662Z" fill="#174516"/>
<path d="M34.81 29.0662H33.399V30.132H34.81V29.0662Z" fill="#174516"/>
<path d="M33.3983 29.0662H31.9873V30.132H33.3983V29.0662Z" fill="#174516"/>
<path d="M31.9879 29.0662H30.5769V30.132H31.9879V29.0662Z" fill="#174516"/>
<path d="M30.5762 29.0662H29.1652V30.132H30.5762V29.0662Z" fill="#2C8B2F"/>
<path d="M29.1649 29.0662H27.7539V30.132H29.1649V29.0662Z" fill="#1E8021"/>
<path d="M27.7545 29.0662H26.3435V30.132H27.7545V29.0662Z" fill="#2C8B2F"/>
<path d="M26.3428 29.0662H24.9318V30.132H26.3428V29.0662Z" fill="#2C8B2F"/>
<path d="M24.9324 29.0662H23.5214V30.132H24.9324V29.0662Z" fill="#2C8B2F"/>
<path d="M23.5221 29.0662H22.111V30.132H23.5221V29.0662Z" fill="#1E8021"/>
<path d="M22.1103 29.0662H20.6993V30.132H22.1103V29.0662Z" fill="#2C8B2F"/>
<path d="M20.699 29.0662H19.2879V30.132H20.699V29.0662Z" fill="#2C8B2F"/>
<path d="M19.2886 29.0662H17.8776V30.132H19.2886V29.0662Z" fill="#20571F"/>
<path d="M17.8769 29.0662H16.4659V30.132H17.8769V29.0662Z" fill="#20571F"/>
<path d="M16.4665 29.0662H15.0555V30.132H16.4665V29.0662Z" fill="#174516"/>
<path d="M15.0549 29.0662H13.6438V30.132H15.0549V29.0662Z" fill="#20571F"/>
<path d="M13.6445 29.0662H12.2334V30.132H13.6445V29.0662Z" fill="#20571F"/>
<path d="M44.6876 28H43.2765V29.0658H44.6876V28Z" fill="#2C8B2F"/>
<path d="M43.2759 28H41.8648V29.0658H43.2759V28Z" fill="#2C8B2F"/>
<path d="M41.8642 28H40.4532V29.0658H41.8642V28Z" fill="#2C8B2F"/>
<path d="M40.4536 28H39.0428V29.0658H40.4536V28Z" fill="#255125"/>
<path d="M39.0422 28H37.6311V29.0658H39.0422V28Z" fill="#0C2F0B"/>
<path d="M37.6321 28H36.221V29.0658H37.6321V28Z" fill="#0C2F0B"/>
<path d="M36.2204 28H34.8093V29.0658H36.2204V28Z" fill="#0C2F0B"/>
<path d="M34.81 28H33.399V29.0658H34.81V28Z" fill="#0C2F0B"/>
<path d="M33.3983 28H31.9873V29.0658H33.3983V28Z" fill="#0C2F0B"/>
<path d="M31.9879 28H30.5769V29.0658H31.9879V28Z" fill="#0C2F0B"/>
<path d="M30.5762 28H29.1652V29.0658H30.5762V28Z" fill="#2C8B2F"/>
<path d="M29.1649 28H27.7539V29.0658H29.1649V28Z" fill="#2C8B2F"/>
<path d="M27.7545 28H26.3435V29.0658H27.7545V28Z" fill="#1E8021"/>
<path d="M26.3428 28H24.9318V29.0658H26.3428V28Z" fill="#2C8B2F"/>
<path d="M24.9324 28H23.5214V29.0658H24.9324V28Z" fill="#2C8B2F"/>
<path d="M23.5221 28H22.111V29.0658H23.5221V28Z" fill="#2C8B2F"/>
<path d="M22.1103 28H20.6993V29.0658H22.1103V28Z" fill="#2C8B2F"/>
<path d="M20.699 28H19.2879V29.0658H20.699V28Z" fill="#1E8021"/>
<path d="M19.2886 28H17.8776V29.0658H19.2886V28Z" fill="#20571F"/>
<path d="M17.8769 28H16.4659V29.0658H17.8769V28Z" fill="#20571F"/>
<path d="M16.4665 28H15.0555V29.0658H16.4665V28Z" fill="#20571F"/>
<path d="M15.0549 28H13.6438V29.0658H15.0549V28Z" fill="#174516"/>
<path d="M13.6445 28H12.2334V29.0658H13.6445V28Z" fill="#20571F"/>
<path d="M44.6876 26.9343H43.2765V28.0001H44.6876V26.9343Z" fill="#1E8021"/>
<path d="M43.2759 26.9343H41.8648V28.0001H43.2759V26.9343Z" fill="#2C8B2F"/>
<path d="M41.8642 26.9343H40.4532V28.0001H41.8642V26.9343Z" fill="#2C8B2F"/>
<path d="M40.4536 26.9343H39.0428V28.0001H40.4536V26.9343Z" fill="#2C8B2F"/>
<path d="M39.0422 26.9343H37.6311V28.0001H39.0422V26.9343Z" fill="#2C8B2F"/>
<path d="M37.6321 26.9343H36.221V28.0001H37.6321V26.9343Z" fill="#1E8021"/>
<path d="M36.2204 26.9343H34.8093V28.0001H36.2204V26.9343Z" fill="#2C8B2F"/>
<path d="M34.81 26.9343H33.399V28.0001H34.81V26.9343Z" fill="#2C8B2F"/>
<path d="M33.3983 26.9343H31.9873V28.0001H33.3983V26.9343Z" fill="#2C8B2F"/>
<path d="M31.9879 26.9343H30.5769V28.0001H31.9879V26.9343Z" fill="#2C8B2F"/>
<path d="M30.5762 26.9343H29.1652V28.0001H30.5762V26.9343Z" fill="#1E8021"/>
<path d="M29.1649 26.9343H27.7539V28.0001H29.1649V26.9343Z" fill="#2C8B2F"/>
<path d="M27.7545 26.9343H26.3435V28.0001H27.7545V26.9343Z" fill="#2C8B2F"/>
<path d="M26.3428 26.9343H24.9318V28.0001H26.3428V26.9343Z" fill="#2C8B2F"/>
<path d="M24.9324 26.9343H23.5214V28.0001H24.9324V26.9343Z" fill="#2C8B2F"/>
<path d="M23.5221 26.9343H22.111V28.0001H23.5221V26.9343Z" fill="#2C8B2F"/>
<path d="M22.1103 26.9343H20.6993V28.0001H22.1103V26.9343Z" fill="#1E8021"/>
<path d="M20.699 26.9343H19.2879V28.0001H20.699V26.9343Z" fill="#2C8B2F"/>
<path d="M19.2886 26.9343H17.8776V28.0001H19.2886V26.9343Z" fill="#20571F"/>
<path d="M17.8769 26.9343H16.4659V28.0001H17.8769V26.9343Z" fill="#174516"/>
<path d="M16.4665 26.9343H15.0555V28.0001H16.4665V26.9343Z" fill="#20571F"/>
<path d="M15.0549 26.9343H13.6438V28.0001H15.0549V26.9343Z" fill="#20571F"/>
<path d="M13.6445 26.9343H12.2334V28.0001H13.6445V26.9343Z" fill="#174516"/>
<path d="M44.6876 25.866H43.2765V26.9318H44.6876V25.866Z" fill="#2C8B2F"/>
<path d="M43.2759 25.866H41.8648V26.9318H43.2759V25.866Z" fill="#2C8B2F"/>
<path d="M41.8642 25.866H40.4532V26.9318H41.8642V25.866Z" fill="#1E8021"/>
<path d="M40.4536 25.866H39.0428V26.9318H40.4536V25.866Z" fill="#2C8B2F"/>
<path d="M39.0422 25.866H37.6311V26.9318H39.0422V25.866Z" fill="#2C8B2F"/>
<path d="M37.6321 25.866H36.221V26.9318H37.6321V25.866Z" fill="#2C8B2F"/>
<path d="M36.2204 25.866H34.8093V26.9318H36.2204V25.866Z" fill="#1E8021"/>
<path d="M34.81 25.866H33.399V26.9318H34.81V25.866Z" fill="#2C8B2F"/>
<path d="M33.3983 25.866H31.9873V26.9318H33.3983V25.866Z" fill="#1E8021"/>
<path d="M31.9879 25.866H30.5769V26.9318H31.9879V25.866Z" fill="#2C8B2F"/>
<path d="M30.5762 25.866H29.1652V26.9318H30.5762V25.866Z" fill="#2C8B2F"/>
<path d="M29.1649 25.866H27.7539V26.9318H29.1649V25.866Z" fill="#2C8B2F"/>
<path d="M27.7545 25.866H26.3435V26.9318H27.7545V25.866Z" fill="#1E8021"/>
<path d="M26.3428 25.866H24.9318V26.9318H26.3428V25.866Z" fill="#2C8B2F"/>
<path d="M24.9324 25.866H23.5214V26.9318H24.9324V25.866Z" fill="#1E8021"/>
<path d="M23.5221 25.866H22.111V26.9318H23.5221V25.866Z" fill="#2C8B2F"/>
<path d="M22.1103 25.866H20.6993V26.9318H22.1103V25.866Z" fill="#2C8B2F"/>
<path d="M20.699 25.866H19.2879V26.9318H20.699V25.866Z" fill="#2C8B2F"/>
<path d="M19.2886 25.866H17.8776V26.9318H19.2886V25.866Z" fill="#20571F"/>
<path d="M17.8769 25.866H16.4659V26.9318H17.8769V25.866Z" fill="#20571F"/>
<path d="M16.4665 25.866H15.0555V26.9318H16.4665V25.866Z" fill="#174516"/>
<path d="M15.0549 25.866H13.6438V26.9318H15.0549V25.866Z" fill="#20571F"/>
<path d="M13.6445 25.866H12.2334V26.9318H13.6445V25.866Z" fill="#20571F"/>
<path d="M44.6876 24.8H43.2765V25.8659H44.6876V24.8Z" fill="#2C8B2F"/>
<path d="M43.2759 24.8H41.8648V25.8659H43.2759V24.8Z" fill="#2C8B2F"/>
<path d="M41.8642 24.8H40.4532V25.8659H41.8642V24.8Z" fill="#2C8B2F"/>
<path d="M40.4536 24.8H39.0428V25.8659H40.4536V24.8Z" fill="#1E8021"/>
<path d="M39.0422 24.8H37.6311V25.8659H39.0422V24.8Z" fill="#2C8B2F"/>
<path d="M37.6321 24.8H36.221V25.8659H37.6321V24.8Z" fill="#2C8B2F"/>
<path d="M36.2204 24.8H34.8093V25.8659H36.2204V24.8Z" fill="#2C8B2F"/>
<path d="M34.81 24.8H33.399V25.8659H34.81V24.8Z" fill="#2C8B2F"/>
<path d="M33.3983 24.8H31.9873V25.8659H33.3983V24.8Z" fill="#2C8B2F"/>
<path d="M31.9879 24.8H30.5769V25.8659H31.9879V24.8Z" fill="#2C8B2F"/>
<path d="M30.5762 24.8H29.1652V25.8659H30.5762V24.8Z" fill="#2C8B2F"/>
<path d="M29.1649 24.8H27.7539V25.8659H29.1649V24.8Z" fill="#2C8B2F"/>
<path d="M27.7545 24.8H26.3435V25.8659H27.7545V24.8Z" fill="#2C8B2F"/>
<path d="M26.3428 24.8H24.9318V25.8659H26.3428V24.8Z" fill="#1E8021"/>
<path d="M24.9324 24.8H23.5214V25.8659H24.9324V24.8Z" fill="#2C8B2F"/>
<path d="M23.5221 24.8H22.111V25.8659H23.5221V24.8Z" fill="#2C8B2F"/>
<path d="M22.1103 24.8H20.6993V25.8659H22.1103V24.8Z" fill="#2C8B2F"/>
<path d="M20.699 24.8H19.2879V25.8659H20.699V24.8Z" fill="#3C983F"/>
<path d="M12.2331 24.8H10.8221V25.8659H12.2331V24.8Z" fill="#0F3510"/>
<path d="M10.8227 24.8H9.41168V25.8659H10.8227V24.8Z" fill="#0F3510"/>
<path d="M48.9198 23.7341H47.5086V24.8H48.9198V23.7341Z" fill="#0F3510"/>
<path d="M43.2759 23.7341H41.8648V24.8H43.2759V23.7341Z" fill="#3F8F41"/>
<path d="M41.8642 23.7341H40.4532V24.8H41.8642V23.7341Z" fill="#2C8B2F"/>
<path d="M40.4536 23.7341H39.0428V24.8H40.4536V23.7341Z" fill="#2C8B2F"/>
<path d="M39.0422 23.7341H37.6311V24.8H39.0422V23.7341Z" fill="#2C8B2F"/>
<path d="M37.6321 23.7341H36.221V24.8H37.6321V23.7341Z" fill="#2C8B2F"/>
<path d="M36.2204 23.7341H34.8093V24.8H36.2204V23.7341Z" fill="#2C8B2F"/>
<path d="M34.81 23.7341H33.399V24.8H34.81V23.7341Z" fill="#2C8B2F"/>
<path d="M33.3983 23.7341H31.9873V24.8H33.3983V23.7341Z" fill="#2C8B2F"/>
<path d="M31.9879 23.7341H30.5769V24.8H31.9879V23.7341Z" fill="#2C8B2F"/>
<path d="M30.5762 23.7341H29.1652V24.8H30.5762V23.7341Z" fill="#1E8021"/>
<path d="M29.1649 23.7341H27.7539V24.8H29.1649V23.7341Z" fill="#2C8B2F"/>
<path d="M27.7545 23.7341H26.3435V24.8H27.7545V23.7341Z" fill="#2C8B2F"/>
<path d="M26.3428 23.7341H24.9318V24.8H26.3428V23.7341Z" fill="#2C8B2F"/>
<path d="M24.9324 23.7341H23.5214V24.8H24.9324V23.7341Z" fill="#2C8B2F"/>
<path d="M23.5221 23.7341H22.111V24.8H23.5221V23.7341Z" fill="#2C8B2F"/>
<path d="M22.1103 23.7341H20.6993V24.8H22.1103V23.7341Z" fill="#2C8B2F"/>
<path d="M16.4665 23.7341H15.0555V24.8H16.4665V23.7341Z" fill="#0F3510"/>
<path d="M15.0549 23.7341H13.6438V24.8H15.0549V23.7341Z" fill="#0F3510"/>
<path d="M13.6445 23.7341H12.2334V24.8H13.6445V23.7341Z" fill="#0F3510"/>
<path d="M12.2331 23.7341H10.8221V24.8H12.2331V23.7341Z" fill="#0F3510"/>
<path d="M10.8227 23.7341H9.41168V24.8H10.8227V23.7341Z" fill="#0F3510"/>
<path d="M9.41103 23.7341H8V24.8H9.41103V23.7341Z" fill="#0F3510"/>
<path d="M50.3302 22.6658H48.9191V23.7316H50.3302V22.6658Z" fill="#0F3510"/>
<path d="M48.9198 22.6658H47.5086V23.7316H48.9198V22.6658Z" fill="#0F3510"/>
<path d="M47.5091 22.6658H46.0983V23.7316H47.5091V22.6658Z" fill="#0F3510"/>
<path d="M41.8642 22.6658H40.4532V23.7316H41.8642V22.6658Z" fill="#2C8B2F"/>
<path d="M40.4536 22.6658H39.0428V23.7316H40.4536V22.6658Z" fill="#2C8B2F"/>
<path d="M39.0422 22.6658H37.6311V23.7316H39.0422V22.6658Z" fill="#2C8B2F"/>
<path d="M37.6321 22.6658H36.221V23.7316H37.6321V22.6658Z" fill="#2C8B2F"/>
<path d="M36.2204 22.6658H34.8093V23.7316H36.2204V22.6658Z" fill="#2C8B2F"/>
<path d="M34.81 22.6658H33.399V23.7316H34.81V22.6658Z" fill="#2C8B2F"/>
<path d="M33.3983 22.6658H31.9873V23.7316H33.3983V22.6658Z" fill="#1E8021"/>
<path d="M31.9879 22.6658H30.5769V23.7316H31.9879V22.6658Z" fill="#2C8B2F"/>
<path d="M30.5762 22.6658H29.1652V23.7316H30.5762V22.6658Z" fill="#2C8B2F"/>
<path d="M29.1649 22.6658H27.7539V23.7316H29.1649V22.6658Z" fill="#1E8021"/>
<path d="M27.7545 22.6658H26.3435V23.7316H27.7545V22.6658Z" fill="#2C8B2F"/>
<path d="M26.3428 22.6658H24.9318V23.7316H26.3428V22.6658Z" fill="#2C8B2F"/>
<path d="M24.9324 22.6658H23.5214V23.7316H24.9324V22.6658Z" fill="#2C8B2F"/>
<path d="M19.2886 22.6658H17.8776V23.7316H19.2886V22.6658Z" fill="#165719"/>
<path d="M17.8769 22.6658H16.4659V23.7316H17.8769V22.6658Z" fill="#0F3510"/>
<path d="M16.4665 22.6658H15.0555V23.7316H16.4665V22.6658Z" fill="#0F3510"/>
<path d="M15.0549 22.6658H13.6438V23.7316H15.0549V22.6658Z" fill="#0F3510"/>
<path d="M13.6445 22.6658H12.2334V23.7316H13.6445V22.6658Z" fill="#0F3510"/>
<path d="M12.2331 22.6658H10.8221V23.7316H12.2331V22.6658Z" fill="#0F3510"/>
<path d="M10.8227 22.6658H9.41168V23.7316H10.8227V22.6658Z" fill="#1F5020"/>
<path d="M9.41103 22.6658H8V23.7316H9.41103V22.6658Z" fill="#346D35"/>
<path d="M48.9198 21.6001H47.5086V22.666H48.9198V21.6001Z" fill="#0F3510"/>
<path d="M47.5091 21.6001H46.0983V22.666H47.5091V21.6001Z" fill="#0F3510"/>
<path d="M46.098 21.6001H44.6869V22.666H46.098V21.6001Z" fill="#0F3510"/>
<path d="M39.0422 21.6001H37.6311V22.666H39.0422V21.6001Z" fill="#2C8B2F"/>
<path d="M37.6321 21.6001H36.221V22.666H37.6321V21.6001Z" fill="#2C8B2F"/>
<path d="M36.2204 21.6001H34.8093V22.666H36.2204V21.6001Z" fill="#1E8021"/>
<path d="M34.81 21.6001H33.399V22.666H34.81V21.6001Z" fill="#2C8B2F"/>
<path d="M33.3983 21.6001H31.9873V22.666H33.3983V21.6001Z" fill="#2C8B2F"/>
<path d="M31.9879 21.6001H30.5769V22.666H31.9879V21.6001Z" fill="#1E8021"/>
<path d="M30.5762 21.6001H29.1652V22.666H30.5762V21.6001Z" fill="#2C8B2F"/>
<path d="M29.1649 21.6001H27.7539V22.666H29.1649V21.6001Z" fill="#2C8B2F"/>
<path d="M27.7545 21.6001H26.3435V22.666H27.7545V21.6001Z" fill="#2C8B2F"/>
<path d="M26.3428 21.6001H24.9318V22.666H26.3428V21.6001Z" fill="#2C8B2F"/>
<path d="M20.699 21.6001H19.2879V22.666H20.699V21.6001Z" fill="#0F3510"/>
<path d="M19.2886 21.6001H17.8776V22.666H19.2886V21.6001Z" fill="#0F3510"/>
<path d="M17.8769 21.6001H16.4659V22.666H17.8769V21.6001Z" fill="#0F3510"/>
<path d="M16.4665 21.6001H15.0555V22.666H16.4665V21.6001Z" fill="#0F3510"/>
<path d="M15.0549 21.6001H13.6438V22.666H15.0549V21.6001Z" fill="#176319"/>
<path d="M13.6445 21.6001H12.2334V22.666H13.6445V21.6001Z" fill="#176319"/>
<path d="M12.2331 21.6001H10.8221V22.666H12.2331V21.6001Z" fill="#176319"/>
<path d="M10.8227 21.6001H9.41168V22.666H10.8227V21.6001Z" fill="#316D32"/>
<path d="M47.5091 20.5342H46.0983V21.6H47.5091V20.5342Z" fill="#0F3510"/>
<path d="M46.098 20.5342H44.6869V21.6H46.098V20.5342Z" fill="#0F3510"/>
<path d="M44.6876 20.5342H43.2765V21.6H44.6876V20.5342Z" fill="#0F3510"/>
<path d="M43.2759 20.5342H41.8648V21.6H43.2759V20.5342Z" fill="#0F3510"/>
<path d="M37.6321 20.5342H36.221V21.6H37.6321V20.5342Z" fill="#2C8B2F"/>
<path d="M36.2204 20.5342H34.8093V21.6H36.2204V20.5342Z" fill="#2C8B2F"/>
<path d="M34.81 20.5342H33.399V21.6H34.81V20.5342Z" fill="#1E8021"/>
<path d="M33.3983 20.5342H31.9873V21.6H33.3983V20.5342Z" fill="#2C8B2F"/>
<path d="M31.9879 20.5342H30.5769V21.6H31.9879V20.5342Z" fill="#2C8B2F"/>
<path d="M30.5762 20.5342H29.1652V21.6H30.5762V20.5342Z" fill="#2C8B2F"/>
<path d="M29.1649 20.5342H27.7539V21.6H29.1649V20.5342Z" fill="#2C8B2F"/>
<path d="M27.7545 20.5342H26.3435V21.6H27.7545V20.5342Z" fill="#2C8B2F"/>
<path d="M22.1103 20.5342H20.6993V21.6H22.1103V20.5342Z" fill="#0F3510"/>
<path d="M20.699 20.5342H19.2879V21.6H20.699V20.5342Z" fill="#0F3510"/>
<path d="M19.2886 20.5342H17.8776V21.6H19.2886V20.5342Z" fill="#0F3510"/>
<path d="M17.8769 20.5342H16.4659V21.6H17.8769V20.5342Z" fill="#0C560E"/>
<path d="M16.4665 20.5342H15.0555V21.6H16.4665V20.5342Z" fill="#176319"/>
<path d="M15.0549 20.5342H13.6438V21.6H15.0549V20.5342Z" fill="#176319"/>
<path d="M13.6445 20.5342H12.2334V21.6H13.6445V20.5342Z" fill="#176319"/>
<path d="M44.6876 19.4661H43.2765V20.5319H44.6876V19.4661Z" fill="#0F3510"/>
<path d="M43.2759 19.4661H41.8648V20.5319H43.2759V19.4661Z" fill="#0F3510"/>
<path d="M41.8642 19.4661H40.4532V20.5319H41.8642V19.4661Z" fill="#0F3510"/>
<path d="M36.2204 19.4661H34.8093V20.5319H36.2204V19.4661Z" fill="#2C8B2F"/>
<path d="M34.81 19.4661H33.399V20.5319H34.81V19.4661Z" fill="#2C8B2F"/>
<path d="M33.3983 19.4661H31.9873V20.5319H33.3983V19.4661Z" fill="#2C8B2F"/>
<path d="M31.9879 19.4661H30.5769V20.5319H31.9879V19.4661Z" fill="#2C8B2F"/>
<path d="M30.5762 19.4661H29.1652V20.5319H30.5762V19.4661Z" fill="#2C8B2F"/>
<path d="M23.5221 19.4661H22.111V20.5319H23.5221V19.4661Z" fill="#0F3510"/>
<path d="M22.1103 19.4661H20.6993V20.5319H22.1103V19.4661Z" fill="#0F3510"/>
<path d="M20.699 19.4661H19.2879V20.5319H20.699V19.4661Z" fill="#0F3510"/>
<path d="M19.2886 19.4661H17.8776V20.5319H19.2886V19.4661Z" fill="#176319"/>
<path d="M17.8769 19.4661H16.4659V20.5319H17.8769V19.4661Z" fill="#176319"/>
<path d="M16.4665 19.4661H15.0555V20.5319H16.4665V19.4661Z" fill="#176319"/>
<path d="M15.0549 19.4661H13.6438V20.5319H15.0549V19.4661Z" fill="#176319"/>
<path d="M43.2759 18.3999H41.8648V19.4658H43.2759V18.3999Z" fill="#0F3510"/>
<path d="M41.8642 18.3999H40.4532V19.4658H41.8642V18.3999Z" fill="#0F3510"/>
<path d="M40.4536 18.3999H39.0428V19.4658H40.4536V18.3999Z" fill="#0F3510"/>
<path d="M33.3983 18.3999H31.9873V19.4658H33.3983V18.3999Z" fill="#2C8B2F"/>
<path d="M31.9879 18.3999H30.5769V19.4658H31.9879V18.3999Z" fill="#2C8B2F"/>
<path d="M26.3428 18.3999H24.9318V19.4658H26.3428V18.3999Z" fill="#0F3510"/>
<path d="M24.9324 18.3999H23.5214V19.4658H24.9324V18.3999Z" fill="#0F3510"/>
<path d="M23.5221 18.3999H22.111V19.4658H23.5221V18.3999Z" fill="#0F3510"/>
<path d="M22.1103 18.3999H20.6993V19.4658H22.1103V18.3999Z" fill="#0F3510"/>
<path d="M20.699 18.3999H19.2879V19.4658H20.699V18.3999Z" fill="#176319"/>
<path d="M19.2886 18.3999H17.8776V19.4658H19.2886V18.3999Z" fill="#0F3510"/>
<path d="M17.8769 18.3999H16.4659V19.4658H17.8769V18.3999Z" fill="#0F3510"/>
<path d="M16.4665 18.3999H15.0555V19.4658H16.4665V18.3999Z" fill="#176319"/>
<path d="M41.8642 17.3342H40.4532V18.4001H41.8642V17.3342Z" fill="#0F3510"/>
<path d="M40.4536 17.3342H39.0428V18.4001H40.4536V17.3342Z" fill="#0F3510"/>
<path d="M39.0422 17.3342H37.6311V18.4001H39.0422V17.3342Z" fill="#0F3510"/>
<path d="M37.6321 17.3342H36.221V18.4001H37.6321V17.3342Z" fill="#1A4D1C"/>
<path d="M27.7545 17.3342H26.3435V18.4001H27.7545V17.3342Z" fill="#0F3510"/>
<path d="M26.3428 17.3342H24.9318V18.4001H26.3428V17.3342Z" fill="#0F3510"/>
<path d="M24.9324 17.3342H23.5214V18.4001H24.9324V17.3342Z" fill="#0F3510"/>
<path d="M23.5221 17.3342H22.111V18.4001H23.5221V17.3342Z" fill="#154617"/>
<path d="M22.1103 17.3342H20.6993V18.4001H22.1103V17.3342Z" fill="#176319"/>
<path d="M20.699 17.3342H19.2879V18.4001H20.699V17.3342Z" fill="#0F3510"/>
<path d="M19.2886 17.3342H17.8776V18.4001H19.2886V17.3342Z" fill="#0F3510"/>
<path d="M17.8769 17.3342H16.4659V18.4001H17.8769V17.3342Z" fill="#0F3510"/>
<path d="M16.4665 17.3342H15.0555V18.4001H16.4665V17.3342Z" fill="#176319"/>
<path d="M40.4536 16.2659H39.0428V17.3317H40.4536V16.2659Z" fill="#0F3510"/>
<path d="M39.0422 16.2659H37.6311V17.3317H39.0422V16.2659Z" fill="#0F3510"/>
<path d="M37.6321 16.2659H36.221V17.3317H37.6321V16.2659Z" fill="#0F3510"/>
<path d="M36.2204 16.2659H34.8093V17.3317H36.2204V16.2659Z" fill="#0F3510"/>
<path d="M29.1649 16.2659H27.7539V17.3317H29.1649V16.2659Z" fill="#0F3510"/>
<path d="M27.7545 16.2659H26.3435V17.3317H27.7545V16.2659Z" fill="#0F3510"/>
<path d="M26.3428 16.2659H24.9318V17.3317H26.3428V16.2659Z" fill="#0F3510"/>
<path d="M24.9324 16.2659H23.5214V17.3317H24.9324V16.2659Z" fill="#1A541B"/>
<path d="M23.5221 16.2659H22.111V17.3317H23.5221V16.2659Z" fill="#176319"/>
<path d="M22.1103 16.2659H20.6993V17.3317H22.1103V16.2659Z" fill="#176319"/>
<path d="M20.699 16.2659H19.2879V17.3317H20.699V16.2659Z" fill="#0F3510"/>
<path d="M19.2886 16.2659H17.8776V17.3317H19.2886V16.2659Z" fill="#0B4D0C"/>
<path d="M17.8769 16.2659H16.4659V17.3317H17.8769V16.2659Z" fill="#0F3510"/>
<path d="M16.4665 16.2659H15.0555V17.3317H16.4665V16.2659Z" fill="#176319"/>
<path d="M37.6321 15.2002H36.221V16.266H37.6321V15.2002Z" fill="#0F3510"/>
<path d="M36.2204 15.2002H34.8093V16.266H36.2204V15.2002Z" fill="#0F3510"/>
<path d="M34.81 15.2002H33.399V16.266H34.81V15.2002Z" fill="#0F3510"/>
<path d="M31.9879 15.2002H30.5769V16.266H31.9879V15.2002Z" fill="#1A4D1C"/>
<path d="M30.5762 15.2002H29.1652V16.266H30.5762V15.2002Z" fill="#0F3510"/>
<path d="M29.1649 15.2002H27.7539V16.266H29.1649V15.2002Z" fill="#0F3510"/>
<path d="M27.7545 15.2002H26.3435V16.266H27.7545V15.2002Z" fill="#0F3510"/>
<path d="M26.3428 15.2002H24.9318V16.266H26.3428V15.2002Z" fill="#176319"/>
<path d="M24.9324 15.2002H23.5214V16.266H24.9324V15.2002Z" fill="#176319"/>
<path d="M23.5221 15.2002H22.111V16.266H23.5221V15.2002Z" fill="#176319"/>
<path d="M22.1103 15.2002H20.6993V16.266H22.1103V15.2002Z" fill="#176319"/>
<path d="M20.699 15.2002H19.2879V16.266H20.699V15.2002Z" fill="#0B4D0C"/>
<path d="M19.2886 15.2002H17.8776V16.266H19.2886V15.2002Z" fill="#0F3510"/>
<path d="M17.8769 15.2002H16.4659V16.266H17.8769V15.2002Z" fill="#0F3510"/>
<path d="M16.4665 15.2002H15.0555V16.266H16.4665V15.2002Z" fill="#176319"/>
<path d="M16.4665 14.1343H15.0555V15.2001H16.4665V14.1343Z" fill="#176319"/>
<path d="M16.4665 13.0657H15.0555V14.1315H16.4665V13.0657Z" fill="#176319"/>
<path d="M36.2204 14.1343H34.8093V15.2001H36.2204V14.1343Z" fill="#0F3510"/>
<path d="M34.81 14.1343H33.399V15.2001H34.81V14.1343Z" fill="#0F3510"/>
<path d="M33.3983 14.1343H31.9873V15.2001H33.3983V14.1343Z" fill="#0F3510"/>
<path d="M31.9879 14.1343H30.5769V15.2001H31.9879V14.1343Z" fill="#0F3510"/>
<path d="M30.5762 14.1343H29.1652V15.2001H30.5762V14.1343Z" fill="#0F3510"/>
<path d="M29.1649 14.1343H27.7539V15.2001H29.1649V14.1343Z" fill="#0F3510"/>
<path d="M27.7545 14.1343H26.3435V15.2001H27.7545V14.1343Z" fill="#176319"/>
<path d="M26.3428 14.1343H24.9318V15.2001H26.3428V14.1343Z" fill="#176319"/>
<path d="M24.9324 14.1343H23.5214V15.2001H24.9324V14.1343Z" fill="#176319"/>
<path d="M23.5221 14.1343H22.111V15.2001H23.5221V14.1343Z" fill="#176319"/>
<path d="M20.699 14.1343H19.2879V15.2001H20.699V14.1343Z" fill="#0F3510"/>
<path d="M19.2886 14.1343H17.8776V15.2001H19.2886V14.1343Z" fill="#0F3510"/>
<path d="M17.8769 14.1343H16.4659V15.2001H17.8769V14.1343Z" fill="#0F3510"/>
<path d="M20.699 13.0657H19.2879V14.1315H20.699V13.0657Z" fill="#0F3510"/>
<path d="M19.2886 13.0657H17.8776V14.1315H19.2886V13.0657Z" fill="#0F3510"/>
<path d="M17.8769 13.0657H16.4659V14.1315H17.8769V13.0657Z" fill="#0F3510"/>
<path d="M34.81 13.0657H33.399V14.1315H34.81V13.0657Z" fill="#0F3510"/>
<path d="M33.3983 13.0657H31.9873V14.1315H33.3983V13.0657Z" fill="#0F3510"/>
<path d="M31.9879 13.0657H30.5769V14.1315H31.9879V13.0657Z" fill="#0F3510"/>
<path d="M30.5762 13.0657H29.1652V14.1315H30.5762V13.0657Z" fill="#1F5421"/>
<path d="M29.1649 13.0657H27.7539V14.1315H29.1649V13.0657Z" fill="#176319"/>
<path d="M27.7545 13.0657H26.3435V14.1315H27.7545V13.0657Z" fill="#176319"/>
<path d="M26.3428 13.0657H24.9318V14.1315H26.3428V13.0657Z" fill="#176319"/>
<path d="M24.9324 13.0657H23.5214V14.1315H24.9324V13.0657Z" fill="#176319"/>
<path d="M33.3983 12H31.9873V13.0658H33.3983V12Z" fill="#0F3510"/>
<path d="M31.9879 12H30.5769V13.0658H31.9879V12Z" fill="#176319"/>
</svg>
