<svg width="56" height="56" viewBox="0 0 56 56" fill="none" xmlns="http://www.w3.org/2000/svg">
<rect width="56" height="56" rx="8" fill="#1DA449" fill-opacity="0.2"/>
<g clip-path="url(#clip0_926_7187)">
<path d="M28 44C36.8366 44 44 36.8366 44 28C44 19.1634 36.8366 12 28 12C19.1634 12 12 19.1634 12 28C12 36.8366 19.1634 44 28 44Z" fill="#1DA449"/>
<path d="M25.1732 34.4631L26.2292 33.489L27.9658 35.2081L29.6836 33.489L30.7558 34.4631L27.9658 37.1643L25.1732 34.4631Z" fill="white"/>
<path d="M32.5173 20.9678H23.4335L19.1984 25.2029V31.3545L23.4335 35.4269L25.7523 33.0028L25.1966 32.3992L27.9657 28.5187L30.7637 32.3992L30.1602 33.0028L32.5173 35.4269L36.7334 31.3545V25.2029L32.5173 20.9678ZM22.9327 30.9696C22.5325 30.9696 22.2083 30.6454 22.2083 30.2452C22.2083 29.8451 22.5325 29.5209 22.9327 29.5209C23.3328 29.5209 23.657 29.8451 23.657 30.2452C23.657 30.6454 23.3328 30.9696 22.9327 30.9696ZM32.5933 30.9696C32.1931 30.9696 31.8689 30.6454 31.8689 30.2452C31.8689 29.8451 32.1931 29.5209 32.5933 29.5209C32.9934 29.5209 33.3176 29.8451 33.3176 30.2452C33.3176 30.6454 32.9934 30.9696 32.5933 30.9696Z" fill="white"/>
<path d="M18.5984 24.8567L21.2839 22.1831L19.8643 21.3313L16.5045 23.0941V27.8617C17.1513 28.264 17.9516 28.6662 18.5984 29.0684" fill="white"/>
<path d="M21.7052 21.7277L22.8415 20.5965L19.6557 18.8359L13.984 22.1183V25.1722L14.7547 24.2236L14.7851 29.4506L17.9918 31.1828H18.6046V29.6955L15.9153 28.0931L15.9253 22.6941L19.8355 20.5769L21.7052 21.7277Z" fill="white"/>
<path d="M37.4018 24.8567L34.7164 22.1831L36.136 21.3313L39.4958 23.0941V27.8617C38.849 28.264 38.0487 28.6662 37.4018 29.0684" fill="white"/>
<path d="M34.2949 21.7277L33.1585 20.5965L36.3446 18.8359L42.0162 22.1183V25.1722L41.2455 24.2236L41.2152 29.4506L38.0083 31.1828H37.3957V29.6955L40.085 28.0931L40.0747 22.6941L36.1648 20.5769L34.2949 21.7277Z" fill="white"/>
</g>
<defs>
<clipPath id="clip0_926_7187">
<rect width="32" height="32" fill="white" transform="translate(12 12)"/>
</clipPath>
</defs>
</svg>
