<svg width="56" height="56" viewBox="0 0 56 56" fill="none" xmlns="http://www.w3.org/2000/svg">
<rect width="56" height="56" rx="8" fill="#D7D7D7" fill-opacity="0.2"/>
<g clip-path="url(#clip0_295_19)">
<path d="M42.8643 38.1333C38.7685 42.08 35.2152 44 29.4105 44C19.6999 44 13 37.3333 13 27.9466C13 18.3199 20.5949 12 29.4919 12C34.6727 12 39.6091 14.2402 43 18.1067L38.8499 22.0267C36.0561 19.0934 32.9905 17.5734 29.3563 17.5734C23.5243 17.5734 18.7776 21.9733 18.7776 27.9734C18.7776 34.2667 23.3617 38.4534 29.4919 38.4534C33.3436 38.4534 35.9204 36.9334 38.8499 34.0533L42.8643 38.1333Z" fill="white"/>
</g>
<defs>
<clipPath id="clip0_295_19">
<rect width="30" height="32" fill="white" transform="translate(13 12)"/>
</clipPath>
</defs>
</svg>
